<svg width="430" height="933" viewBox="0 0 430 933" fill="none" xmlns="http://www.w3.org/2000/svg">
<path fill-rule="evenodd" clip-rule="evenodd" d="M-39.9974 0L-9.55536 2.65683e-05H20.8928H52.0486H81.7856H112.23H143.386H173.831H204.279H234.723H265.172H295.616H326.064H356.509H387.665H416.694H447.142H478.295H508.032H538.48H569.632H600.08H630.528H660.973H691.418H721.866H752.31H782.759H813.911H842.944H873.388H904.544H934.281H964.726H995.882H1026.33H1056.77H1087.22H1117.67H1148.12H1178.56H1209H1240.16H1269.19H1299.63H1330.79H1360.53H1390.98H1422.13H1452.58H1483.02H1513.47H1543.92H1574.36H1599.15V1.00003L1575.36 1.00003V33.2786H1599.15V34.2786H1575.36V66.5572H1599.15V67.5572H1575.36V99.8358H1599.15V100.836H1575.36V132.407H1599.15V133.407H1575.36V165.684H1599.15V166.684H1575.36V198.962H1599.15V199.962H1575.36V232.95H1599.15V233.95H1575.36V266.229H1599.15V267.229H1575.36V299.507H1599.15V300.507H1575.36V332.076H1599.15V333.076H1575.36V365.355H1599.15V366.355H1575.36V398.634H1599.15V399.634H1575.36V431.912H1599.15V432.912H1575.36V465.191H1599.15V466.191H1575.36V499.177H1599.15V500.177H1575.36V532.456H1599.15V533.456H1575.36V565.734H1599.15V566.734H1575.36V598.305H1599.15V599.305H1575.36V631.584H1599.15V632.584H1575.36V664.86H1599.15V665.86H1575.36V698.848H1599.15V699.848H1575.36V732.127H1599.15V733.127H1575.36V765.406H1599.15V766.406H1575.36V797.975H1599.15V798.975H1575.36V831.253H1599.15V832.253H1575.36V864.532H1599.15V865.532H1575.36V897.811H1599.15V898.811H1575.36V931.089H1599.15V932.089H-39.9974L-39.9974 931.797H-40V465.899L-40 465.898V2.65683e-05L-39.9974 2.65684e-05V0ZM-39 466.191L-39 499.177H-9.55536L-9.55536 466.191H-39ZM-8.55536 466.191L-8.55536 499.177H20.8928V466.191H-8.55536ZM21.8928 466.191V499.177H52.0486V466.191H21.8928ZM53.0486 466.191V499.177L81.7856 499.177V466.191H53.0486ZM82.7856 466.191V499.177H112.23V466.191H82.7856ZM113.23 466.191V499.177H143.386V466.191H113.23ZM144.386 466.191V499.177H173.831V466.191H144.386ZM174.831 466.191V499.177H204.279V466.191H174.831ZM205.279 466.191V499.177H234.723V466.191H205.279ZM235.723 466.191V499.177H265.172V466.191H235.723ZM266.172 466.191V499.177H295.616V466.191H266.172ZM296.616 466.191V499.177H326.064V466.191H296.616ZM327.064 466.191V499.177H356.509V466.191H327.064ZM357.509 466.191V499.177H387.665V466.191H357.509ZM388.665 466.191V499.177H416.694V466.191H388.665ZM417.694 466.191V499.177H447.142V466.191H417.694ZM448.142 466.191V499.177H478.295V466.191H448.142ZM479.295 466.191V499.177H508.032V466.191H479.295ZM509.032 466.191V499.177H538.48V466.191H509.032ZM539.48 466.191V499.177H569.632V466.191H539.48ZM570.632 466.191V499.177H600.08V466.191H570.632ZM601.08 466.191V499.177H630.528V466.191H601.08ZM631.528 466.191V499.177H660.973V466.191H631.528ZM661.973 466.191V499.177H691.418V466.191H661.973ZM692.418 466.191V499.177H721.866V466.191H692.418ZM722.866 466.191V499.177H752.31V466.191H722.866ZM753.31 466.191V499.177H782.759V466.191L753.31 466.191ZM783.759 466.191V499.177H813.911V466.191H783.759ZM814.911 466.191V499.177H842.944V466.191H814.911ZM843.944 466.191V499.177H873.388V466.191H843.944ZM874.388 466.191V499.177H904.544V466.191H874.388ZM905.544 466.191V499.177H934.281V466.191H905.544ZM935.281 466.191V499.177H964.726V466.191H935.281ZM965.726 466.191V499.177H995.882V466.191H965.726ZM996.882 466.191V499.177H1026.33V466.191H996.882ZM1027.33 466.191V499.177H1056.77V466.191H1027.33ZM1057.77 466.191V499.177H1087.22V466.191H1057.77ZM1088.22 466.191V499.177H1117.67V466.191H1088.22ZM1118.67 466.191V499.177H1148.12V466.191H1118.67ZM1149.12 466.191V499.177H1178.56V466.191H1149.12ZM1179.56 466.191V499.177H1209V466.191H1179.56ZM1210 466.191V499.177H1240.16V466.191H1210ZM1241.16 466.191V499.177H1269.19V466.191H1241.16ZM1270.19 466.191V499.177H1299.63V466.191H1270.19ZM1300.63 466.191V499.177H1330.79V466.191H1300.63ZM1331.79 466.191V499.177H1360.53V466.191H1331.79ZM1361.53 466.191V499.177H1390.98V466.191H1361.53ZM1391.98 466.191V499.177H1422.13V466.191H1391.98ZM1423.13 466.191V499.177H1452.58V466.191H1423.13ZM1453.58 466.191V499.177H1483.02V466.191H1453.58ZM1484.02 466.191V499.177L1513.47 499.177V466.191H1484.02ZM1514.47 466.191V499.177H1543.92V466.191H1514.47ZM1544.92 466.191V499.177H1574.36V466.191H1544.92ZM1574.36 432.912V465.191H1544.92V432.912H1574.36ZM1543.92 432.912V465.191H1514.47V432.912H1543.92ZM1513.47 432.912V465.191H1484.02V432.912H1513.47ZM1483.02 432.912V465.191H1453.58V432.912H1483.02ZM1452.58 432.912V465.191H1423.13V432.912H1452.58ZM1422.13 432.912V465.191H1391.98V432.912H1422.13ZM1390.98 432.912V465.191H1361.53V432.912H1390.98ZM1360.53 432.912V465.191H1331.79V432.912H1360.53ZM1330.79 432.912V465.191H1300.63V432.912H1330.79ZM1299.63 432.912V465.191H1270.19V432.912H1299.63ZM1269.19 432.912V465.191H1241.16V432.912H1269.19ZM1240.16 432.912V465.191H1210V432.912H1240.16ZM1209 432.912V465.191H1179.56V432.912H1209ZM1178.56 432.912V465.191H1149.12V432.912H1178.56ZM1148.12 432.912V465.191H1118.67V432.912H1148.12ZM1117.67 432.912V465.191H1088.22V432.912H1117.67ZM1087.22 432.912V465.191H1057.77V432.912H1087.22ZM1056.77 432.912V465.191H1027.33V432.912H1056.77ZM1026.33 432.912V465.191H996.882V432.912H1026.33ZM995.882 432.912V465.191H965.726V432.912H995.882ZM964.726 432.912V465.191H935.281V432.912H964.726ZM934.281 432.912V465.191H905.544V432.912H934.281ZM904.544 432.912V465.191H874.388V432.912H904.544ZM873.388 432.912V465.191H843.944V432.912H873.388ZM842.944 432.912V465.191H814.911V432.912H842.944ZM813.911 432.912V465.191H783.759V432.912H813.911ZM782.759 432.912V465.191L753.31 465.191V432.912L782.759 432.912ZM752.31 432.912V465.191H722.866V432.912H752.31ZM721.866 432.912V465.191H692.418V432.912H721.866ZM691.418 432.912V465.191H661.973V432.912H691.418ZM660.973 432.912V465.191H631.528V432.912H660.973ZM630.528 432.912V465.191H601.08V432.912H630.528ZM600.08 432.912V465.191H570.632V432.912H600.08ZM569.632 432.912V465.191H539.48V432.912H569.632ZM538.48 432.912V465.191H509.032V432.912H538.48ZM508.032 432.912V465.191H479.295V432.912H508.032ZM478.295 432.912V465.191H448.142V432.912H478.295ZM447.142 432.912V465.191H417.694V432.912H447.142ZM416.694 432.912V465.191H388.665V432.912H416.694ZM387.665 432.912V465.191H357.509V432.912H387.665ZM356.509 432.912V465.191H327.064V432.912H356.509ZM326.064 432.912V465.191H296.616V432.912H326.064ZM295.616 432.912V465.191H266.172V432.912H295.616ZM265.172 432.912V465.191H235.723V432.912H265.172ZM234.723 432.912V465.191H205.279V432.912H234.723ZM204.279 432.912V465.191H174.831V432.912H204.279ZM173.831 432.912V465.191H144.386V432.912H173.831ZM143.386 432.912V465.191H113.23V432.912H143.386ZM112.23 432.912V465.191H82.7856V432.912H112.23ZM81.7856 432.912V465.191H53.0486V432.912H81.7856ZM52.0486 432.912V465.191H21.8928V432.912H52.0486ZM20.8928 432.912V465.191H-8.55538V432.912H20.8928ZM-9.55538 432.912V465.191H-39L-39 432.912H-9.55538ZM-39 431.912H-9.55538V399.634H-39L-39 431.912ZM-8.55538 431.912H20.8928V399.634H-8.55538V431.912ZM21.8928 431.912H52.0486V399.634H21.8928V431.912ZM53.0486 431.912H81.7856V399.634H53.0486V431.912ZM82.7856 431.912H112.23V399.634H82.7856V431.912ZM113.23 431.912H143.386V399.634H113.23V431.912ZM144.386 431.912H173.831V399.634H144.386V431.912ZM174.831 431.912H204.279V399.634H174.831V431.912ZM205.279 431.912H234.723V399.634H205.279V431.912ZM235.723 431.912H265.172V399.634H235.723V431.912ZM266.172 431.912H295.616V399.634H266.172V431.912ZM296.616 431.912H326.064V399.634H296.616V431.912ZM327.064 431.912H356.509V399.634H327.064V431.912ZM357.509 431.912H387.665V399.634H357.509V431.912ZM388.665 431.912H416.694V399.634H388.665V431.912ZM417.694 431.912H447.142V399.634H417.694V431.912ZM448.142 431.912H478.295V399.634H448.142V431.912ZM479.295 431.912H508.032V399.634H479.295V431.912ZM509.032 431.912H538.48V399.634H509.032V431.912ZM539.48 431.912H569.632V399.634H539.48V431.912ZM570.632 431.912H600.08V399.634H570.632V431.912ZM601.08 431.912H630.528V399.634H601.08V431.912ZM631.528 431.912H660.973V399.634H631.528V431.912ZM661.973 431.912H691.418V399.634H661.973V431.912ZM692.418 431.912H721.866V399.634H692.418V431.912ZM722.866 431.912H752.31V399.634H722.866V431.912ZM753.31 431.912L782.759 431.912V399.634L753.31 399.634V431.912ZM783.759 431.912H813.911V399.634H783.759V431.912ZM814.911 431.912H842.944V399.634H814.911V431.912ZM843.944 431.912H873.388V399.634H843.944V431.912ZM874.388 431.912H904.544V399.634H874.388V431.912ZM905.544 431.912H934.281V399.634H905.544V431.912ZM935.281 431.912H964.726V399.634H935.281V431.912ZM965.726 431.912H995.882V399.634H965.726V431.912ZM996.882 431.912H1026.33V399.634H996.882V431.912ZM1027.33 431.912H1056.77V399.634H1027.33V431.912ZM1057.77 431.912H1087.22V399.634H1057.77V431.912ZM1088.22 431.912H1117.67V399.634H1088.22V431.912ZM1118.67 431.912H1148.12V399.634H1118.67V431.912ZM1149.12 431.912H1178.56V399.634H1149.12V431.912ZM1179.56 431.912H1209V399.634H1179.56V431.912ZM1210 431.912H1240.16V399.634H1210V431.912ZM1241.16 431.912H1269.19V399.634H1241.16V431.912ZM1270.19 431.912H1299.63V399.634H1270.19V431.912ZM1300.63 431.912H1330.79V399.634H1300.63V431.912ZM1331.79 431.912H1360.53V399.634H1331.79V431.912ZM1361.53 431.912H1390.98V399.634H1361.53V431.912ZM1391.98 431.912H1422.13V399.634H1391.98V431.912ZM1423.13 431.912H1452.58V399.634H1423.13V431.912ZM1453.58 431.912H1483.02V399.634H1453.58V431.912ZM1484.02 431.912H1513.47V399.634H1484.02V431.912ZM1514.47 431.912H1543.92V399.634H1514.47V431.912ZM1544.92 431.912H1574.36V399.634H1544.92V431.912ZM1574.36 366.355V398.634H1544.92V366.355H1574.36ZM1543.92 366.355V398.634H1514.47V366.355H1543.92ZM1513.47 366.355V398.634H1484.02V366.355H1513.47ZM1483.02 366.355V398.634H1453.58V366.355H1483.02ZM1452.58 366.355V398.634H1423.13V366.355H1452.58ZM1422.13 366.355V398.634H1391.98V366.355H1422.13ZM1390.98 366.355V398.634H1361.53V366.355H1390.98ZM1360.53 366.355V398.634H1331.79V366.355H1360.53ZM1330.79 366.355V398.634H1300.63V366.355H1330.79ZM1299.63 366.355V398.634H1270.19V366.355H1299.63ZM1269.19 366.355V398.634H1241.16V366.355H1269.19ZM1240.16 366.355V398.634H1210V366.355H1240.16ZM1209 366.355V398.634H1179.56V366.355H1209ZM1178.56 366.355V398.634H1149.12V366.355H1178.56ZM1148.12 366.355V398.634H1118.67V366.355H1148.12ZM1117.67 366.355V398.634H1088.22V366.355H1117.67ZM1087.22 366.355V398.634H1057.77V366.355H1087.22ZM1056.77 366.355V398.634H1027.33V366.355H1056.77ZM1026.33 366.355V398.634H996.882V366.355H1026.33ZM995.882 366.355V398.634H965.726V366.355H995.882ZM964.726 366.355V398.634H935.281V366.355H964.726ZM934.281 366.355V398.634H905.544V366.355H934.281ZM904.544 366.355V398.634H874.388V366.355H904.544ZM873.388 366.355V398.634H843.944V366.355H873.388ZM842.944 366.355V398.634H814.911V366.355H842.944ZM813.911 366.355V398.634H783.759V366.355H813.911ZM782.759 366.355V398.634L753.31 398.634V366.355L782.759 366.355ZM752.31 366.355V398.634H722.866V366.355H752.31ZM721.866 366.355V398.634H692.418V366.355H721.866ZM691.418 366.355V398.634H661.973V366.355H691.418ZM660.973 366.355V398.634H631.528V366.355H660.973ZM630.528 366.355V398.634H601.08V366.355H630.528ZM600.08 366.355V398.634H570.632V366.355H600.08ZM569.632 366.355V398.634H539.48V366.355H569.632ZM538.48 366.355V398.634H509.032V366.355H538.48ZM508.032 366.355V398.634H479.295V366.355H508.032ZM478.295 366.355V398.634H448.142V366.355H478.295ZM447.142 366.355V398.634H417.694V366.355H447.142ZM416.694 366.355V398.634H388.665V366.355H416.694ZM387.665 366.355V398.634H357.509V366.355H387.665ZM356.509 366.355V398.634H327.064V366.355H356.509ZM326.064 366.355V398.634H296.616V366.355H326.064ZM295.616 366.355V398.634H266.172V366.355H295.616ZM265.172 366.355V398.634H235.723V366.355H265.172ZM234.723 366.355V398.634H205.279V366.355H234.723ZM204.279 366.355V398.634H174.831V366.355H204.279ZM173.831 366.355V398.634H144.386V366.355H173.831ZM143.386 366.355V398.634H113.23V366.355H143.386ZM112.23 366.355V398.634H82.7856V366.355H112.23ZM81.7856 366.355V398.634H53.0486V366.355H81.7856ZM52.0486 366.355V398.634H21.8928V366.355H52.0486ZM20.8928 366.355V398.634H-8.55538V366.355H20.8928ZM-9.55538 366.355V398.634H-39L-39 366.355H-9.55538ZM-39 365.355H-9.55537V333.076H-39L-39 365.355ZM-8.55537 365.355H20.8928V333.076H-8.55537V365.355ZM21.8928 365.355H52.0486V333.076H21.8928V365.355ZM53.0486 365.355H81.7856V333.076H53.0486V365.355ZM82.7856 365.355H112.23V333.076H82.7856V365.355ZM113.23 365.355H143.386V333.076H113.23V365.355ZM144.386 365.355H173.831V333.076H144.386V365.355ZM174.831 365.355H204.279V333.076H174.831V365.355ZM205.279 365.355H234.723V333.076H205.279V365.355ZM235.723 365.355H265.172V333.076H235.723V365.355ZM266.172 365.355H295.616V333.076H266.172V365.355ZM296.616 365.355H326.064V333.076H296.616V365.355ZM327.064 365.355H356.509V333.076H327.064V365.355ZM357.509 365.355H387.665V333.076H357.509V365.355ZM388.665 365.355H416.694V333.076H388.665V365.355ZM417.694 365.355H447.142V333.076H417.694V365.355ZM448.142 365.355H478.295V333.076H448.142V365.355ZM479.295 365.355H508.032V333.076H479.295V365.355ZM509.032 365.355H538.48V333.076H509.032V365.355ZM539.48 365.355H569.632V333.076H539.48V365.355ZM570.632 365.355H600.08V333.076H570.632V365.355ZM601.08 365.355H630.528V333.076H601.08V365.355ZM631.528 365.355H660.973V333.076H631.528V365.355ZM661.973 365.355H691.418V333.076H661.973V365.355ZM692.418 365.355H721.866V333.076H692.418V365.355ZM722.866 365.355H752.31V333.076H722.866V365.355ZM753.31 365.355L782.759 365.355V333.076L753.31 333.076V365.355ZM783.759 365.355H813.911V333.076H783.759V365.355ZM814.911 365.355H842.944V333.076H814.911V365.355ZM843.944 365.355H873.388V333.076H843.944V365.355ZM874.388 365.355H904.544V333.076H874.388V365.355ZM905.544 365.355H934.281V333.076H905.544V365.355ZM935.281 365.355H964.726V333.076H935.281V365.355ZM965.726 365.355H995.882V333.076H965.726V365.355ZM996.882 365.355H1026.33V333.076H996.882V365.355ZM1027.33 365.355H1056.77V333.076H1027.33V365.355ZM1057.77 365.355H1087.22V333.076H1057.77V365.355ZM1088.22 365.355H1117.67V333.076H1088.22V365.355ZM1118.67 365.355H1148.12V333.076H1118.67V365.355ZM1149.12 365.355H1178.56V333.076H1149.12V365.355ZM1179.56 365.355H1209V333.076H1179.56V365.355ZM1210 365.355H1240.16V333.076H1210V365.355ZM1241.16 365.355H1269.19V333.076H1241.16V365.355ZM1270.19 365.355H1299.63V333.076H1270.19V365.355ZM1300.63 365.355H1330.79V333.076H1300.63V365.355ZM1331.79 365.355H1360.53V333.076H1331.79V365.355ZM1361.53 365.355H1390.98V333.076H1361.53V365.355ZM1391.98 365.355H1422.13V333.076H1391.98V365.355ZM1423.13 365.355H1452.58V333.076H1423.13V365.355ZM1453.58 365.355H1483.02V333.076H1453.58V365.355ZM1484.02 365.355H1513.47V333.076H1484.02V365.355ZM1514.47 365.355H1543.92V333.076H1514.47V365.355ZM1544.92 365.355H1574.36V333.076H1544.92V365.355ZM1574.36 300.507V332.076H1544.92V300.507H1574.36ZM1543.92 300.507V332.076H1514.47V300.507H1543.92ZM1513.47 300.507V332.076H1484.02V300.507H1513.47ZM1483.02 300.507V332.076H1453.58V300.507H1483.02ZM1452.58 300.507V332.076H1423.13V300.507H1452.58ZM1422.13 300.507V332.076H1391.98V300.507H1422.13ZM1390.98 300.507V332.076H1361.53V300.507H1390.98ZM1360.53 300.507V332.076H1331.79V300.507H1360.53ZM1330.79 300.507V332.076H1300.63V300.507H1330.79ZM1299.63 300.507V332.076H1270.19V300.507H1299.63ZM1269.19 300.507V332.076H1241.16V300.507H1269.19ZM1240.16 300.507V332.076H1210V300.507H1240.16ZM1209 300.507V332.076H1179.56V300.507H1209ZM1178.56 300.507V332.076H1149.12V300.507H1178.56ZM1148.12 300.507V332.076H1118.67V300.507H1148.12ZM1117.67 300.507V332.076H1088.22V300.507H1117.67ZM1087.22 300.507V332.076H1057.77V300.507H1087.22ZM1056.77 300.507V332.076H1027.33V300.507H1056.77ZM1026.33 300.507V332.076H996.882V300.507H1026.33ZM995.882 300.507V332.076H965.726V300.507H995.882ZM964.726 300.507V332.076H935.281V300.507H964.726ZM934.281 300.507V332.076H905.544V300.507H934.281ZM904.544 300.507V332.076H874.388V300.507H904.544ZM873.388 300.507V332.076H843.944V300.507H873.388ZM842.944 300.507V332.076H814.911V300.507H842.944ZM813.911 300.507V332.076H783.759V300.507H813.911ZM782.759 300.507V332.076L753.31 332.076V300.507L782.759 300.507ZM752.31 300.507V332.076H722.866V300.507H752.31ZM721.866 300.507V332.076H692.418V300.507H721.866ZM691.418 300.507V332.076H661.973V300.507H691.418ZM660.973 300.507V332.076H631.528V300.507H660.973ZM630.528 300.507V332.076H601.08V300.507H630.528ZM600.08 300.507V332.076H570.632V300.507H600.08ZM569.632 300.507V332.076H539.48V300.507H569.632ZM538.48 300.507V332.076H509.032V300.507H538.48ZM508.032 300.507V332.076H479.295V300.507H508.032ZM478.295 300.507V332.076H448.142V300.507H478.295ZM447.142 300.507V332.076H417.694V300.507H447.142ZM416.694 300.507V332.076H388.665V300.507H416.694ZM387.665 300.507V332.076H357.509V300.507H387.665ZM356.509 300.507V332.076H327.064V300.507H356.509ZM326.064 300.507V332.076H296.616V300.507H326.064ZM295.616 300.507V332.076H266.172V300.507H295.616ZM265.172 300.507V332.076H235.723V300.507H265.172ZM234.723 300.507V332.076H205.279V300.507H234.723ZM204.279 300.507V332.076H174.831V300.507H204.279ZM173.831 300.507V332.076H144.386V300.507H173.831ZM143.386 300.507V332.076H113.23V300.507H143.386ZM112.23 300.507V332.076H82.7856V300.507H112.23ZM81.7856 300.507V332.076H53.0486V300.507H81.7856ZM52.0486 300.507V332.076H21.8928V300.507H52.0486ZM20.8928 300.507V332.076H-8.55537V300.507H20.8928ZM-9.55537 300.507V332.076H-39L-39 300.507H-9.55537ZM-39 299.507H-9.55537V267.229H-39L-39 299.507ZM-8.55537 299.507H20.8928V267.229H-8.55537V299.507ZM21.8928 299.507H52.0486V267.229H21.8928V299.507ZM53.0486 299.507H81.7856V267.229H53.0486V299.507ZM82.7856 299.507H112.23V267.229H82.7856V299.507ZM113.23 299.507H143.386V267.229H113.23V299.507ZM144.386 299.507H173.831V267.229H144.386V299.507ZM174.831 299.507H204.279V267.229H174.831V299.507ZM205.279 299.507H234.723V267.229H205.279V299.507ZM235.723 299.507H265.172V267.229H235.723V299.507ZM266.172 299.507H295.616V267.229H266.172V299.507ZM296.616 299.507H326.064V267.229H296.616V299.507ZM327.064 299.507H356.509V267.229H327.064V299.507ZM357.509 299.507H387.665V267.229H357.509V299.507ZM388.665 299.507H416.694V267.229H388.665V299.507ZM417.694 299.507H447.142V267.229H417.694V299.507ZM448.142 299.507H478.295V267.229H448.142V299.507ZM479.295 299.507H508.032V267.229H479.295V299.507ZM509.032 299.507H538.48V267.229H509.032V299.507ZM539.48 299.507H569.632V267.229H539.48V299.507ZM570.632 299.507H600.08V267.229H570.632V299.507ZM601.08 299.507H630.528V267.229H601.08V299.507ZM631.528 299.507H660.973V267.229H631.528V299.507ZM661.973 299.507H691.418V267.229H661.973V299.507ZM692.418 299.507H721.866V267.229H692.418V299.507ZM722.866 299.507H752.31V267.229H722.866V299.507ZM753.31 299.507L782.759 299.507V267.229L753.31 267.229V299.507ZM783.759 299.507H813.911V267.229H783.759V299.507ZM814.911 299.507H842.944V267.229H814.911V299.507ZM843.944 299.507H873.388V267.229H843.944V299.507ZM874.388 299.507H904.544V267.229H874.388V299.507ZM905.544 299.507H934.281V267.229H905.544V299.507ZM935.281 299.507H964.726V267.229H935.281V299.507ZM965.726 299.507H995.882V267.229H965.726V299.507ZM996.882 299.507H1026.33V267.229H996.882V299.507ZM1027.33 299.507H1056.77V267.229H1027.33V299.507ZM1057.77 299.507H1087.22V267.229H1057.77V299.507ZM1088.22 299.507H1117.67V267.229H1088.22V299.507ZM1118.67 299.507H1148.12V267.229H1118.67V299.507ZM1149.12 299.507H1178.56V267.229H1149.12V299.507ZM1179.56 299.507H1209V267.229H1179.56V299.507ZM1210 299.507H1240.16V267.229H1210V299.507ZM1241.16 299.507H1269.19V267.229H1241.16V299.507ZM1270.19 299.507H1299.63V267.229H1270.19V299.507ZM1300.63 299.507H1330.79V267.229H1300.63V299.507ZM1331.79 299.507H1360.53V267.229H1331.79V299.507ZM1361.53 299.507H1390.98V267.229H1361.53V299.507ZM1391.98 299.507H1422.13V267.229H1391.98V299.507ZM1423.13 299.507H1452.58V267.229H1423.13V299.507ZM1453.58 299.507H1483.02V267.229H1453.58V299.507ZM1484.02 299.507H1513.47V267.229H1484.02V299.507ZM1514.47 299.507H1543.92V267.229H1514.47V299.507ZM1544.92 299.507H1574.36V267.229H1544.92V299.507ZM1574.36 233.95V266.229H1544.92V233.95H1574.36ZM1543.92 233.95V266.229H1514.47V233.95H1543.92ZM1513.47 233.95V266.229H1484.02V233.95H1513.47ZM1483.02 233.95V266.229H1453.58V233.95H1483.02ZM1452.58 233.95V266.229H1423.13V233.95H1452.58ZM1422.13 233.95V266.229H1391.98V233.95H1422.13ZM1390.98 233.95V266.229H1361.53V233.95H1390.98ZM1360.53 233.95V266.229H1331.79V233.95H1360.53ZM1330.79 233.95V266.229H1300.63V233.95H1330.79ZM1299.63 233.95V266.229H1270.19V233.95H1299.63ZM1269.19 233.95V266.229H1241.16V233.95H1269.19ZM1240.16 233.95V266.229H1210V233.95H1240.16ZM1209 233.95V266.229H1179.56V233.95L1209 233.95ZM1178.56 233.95V266.229H1149.12V233.95H1178.56ZM1148.12 233.95V266.229H1118.67V233.95H1148.12ZM1117.67 233.95V266.229H1088.22V233.95H1117.67ZM1087.22 233.95V266.229H1057.77V233.95H1087.22ZM1056.77 233.95V266.229H1027.33V233.95H1056.77ZM1026.33 233.95V266.229H996.882V233.95H1026.33ZM995.882 233.95V266.229H965.726V233.95H995.882ZM964.726 233.95V266.229H935.281V233.95H964.726ZM934.281 233.95V266.229H905.544V233.95H934.281ZM904.544 233.95V266.229H874.388V233.95H904.544ZM873.388 233.95V266.229H843.944V233.95H873.388ZM842.944 233.95V266.229H814.911V233.95H842.944ZM813.911 233.95V266.229H783.759V233.95H813.911ZM782.759 233.95V266.229L753.31 266.229V233.95H782.759ZM752.31 233.95V266.229H722.866V233.95H752.31ZM721.866 233.95V266.229H692.418V233.95H721.866ZM691.418 233.95V266.229H661.973V233.95H691.418ZM660.973 233.95V266.229H631.528V233.95H660.973ZM630.528 233.95V266.229H601.08V233.95H630.528ZM600.08 233.95V266.229H570.632V233.95H600.08ZM569.632 233.95V266.229H539.48V233.95H569.632ZM538.48 233.95V266.229H509.032V233.95H538.48ZM508.032 233.95V266.229H479.295V233.95H508.032ZM478.295 233.95V266.229H448.142V233.95H478.295ZM447.142 233.95V266.229H417.694V233.95H447.142ZM416.694 233.95V266.229H388.665V233.95H416.694ZM387.665 233.95V266.229H357.509V233.95L387.665 233.95ZM356.509 233.95V266.229H327.064V233.95H356.509ZM326.064 233.95V266.229H296.616V233.95H326.064ZM295.616 233.95V266.229H266.172V233.95H295.616ZM265.172 233.95V266.229H235.723V233.95H265.172ZM234.723 233.95V266.229H205.279V233.95H234.723ZM204.279 233.95V266.229H174.831V233.95H204.279ZM173.831 233.95V266.229H144.386V233.95H173.831ZM143.386 233.95V266.229H113.23V233.95H143.386ZM112.23 233.95V266.229H82.7856V233.95H112.23ZM81.7856 233.95V266.229H53.0486V233.95H81.7856ZM52.0486 233.95V266.229H21.8928V233.95H52.0486ZM20.8928 233.95V266.229H-8.55537L-8.55537 233.95H20.8928ZM-9.55537 233.95L-9.55537 266.229H-39L-39 233.95H-9.55537ZM-39 232.95H-9.55537L-9.55537 199.962H-39L-39 232.95ZM-8.55537 232.95H20.8928V199.962H-8.55537L-8.55537 232.95ZM21.8928 232.95H52.0486V199.962H21.8928V232.95ZM53.0486 232.95H81.7856V199.962H53.0486V232.95ZM82.7856 232.95H112.23V199.962H82.7856V232.95ZM113.23 232.95H143.386V199.962H113.23V232.95ZM144.386 232.95H173.831V199.962H144.386V232.95ZM174.831 232.95H204.279V199.962H174.831V232.95ZM205.279 232.95H234.723V199.962H205.279V232.95ZM235.723 232.95H265.172V199.962H235.723V232.95ZM266.172 232.95H295.616V199.962H266.172V232.95ZM296.616 232.95H326.064V199.962H296.616V232.95ZM327.064 232.95H356.509V199.962H327.064V232.95ZM357.509 232.95L387.665 232.95V199.962L357.509 199.962V232.95ZM388.665 232.95H416.694V199.962H388.665V232.95ZM417.694 232.95H447.142V199.962H417.694V232.95ZM448.142 232.95H478.295V199.962H448.142V232.95ZM479.295 232.95H508.032V199.962H479.295V232.95ZM509.032 232.95H538.48V199.962H509.032V232.95ZM539.48 232.95H569.632V199.962H539.48V232.95ZM570.632 232.95H600.08V199.962H570.632V232.95ZM601.08 232.95H630.528V199.962H601.08V232.95ZM631.528 232.95H660.973V199.962H631.528V232.95ZM661.973 232.95H691.418V199.962H661.973V232.95ZM692.418 232.95H721.866V199.962H692.418V232.95ZM722.866 232.95H752.31V199.962H722.866V232.95ZM753.31 232.95H782.759V199.962H753.31V232.95ZM783.759 232.95H813.911V199.962H783.759V232.95ZM814.911 232.95H842.944V199.962H814.911V232.95ZM843.944 232.95H873.388V199.962H843.944V232.95ZM874.388 232.95H904.544V199.962H874.388V232.95ZM905.544 232.95H934.281V199.962H905.544V232.95ZM935.281 232.95H964.726V199.962H935.281V232.95ZM965.726 232.95H995.882V199.962H965.726V232.95ZM996.882 232.95H1026.33V199.962H996.882V232.95ZM1027.33 232.95H1056.77V199.962H1027.33V232.95ZM1057.77 232.95H1087.22V199.962H1057.77V232.95ZM1088.22 232.95H1117.67V199.962H1088.22V232.95ZM1118.67 232.95H1148.12V199.962H1118.67V232.95ZM1149.12 232.95H1178.56V199.962H1149.12V232.95ZM1179.56 232.95L1209 232.95V199.962L1179.56 199.962V232.95ZM1210 232.95H1240.16V199.962H1210V232.95ZM1241.16 232.95H1269.19V199.962H1241.16V232.95ZM1270.19 232.95H1299.63V199.962H1270.19V232.95ZM1300.63 232.95H1330.79V199.962H1300.63V232.95ZM1331.79 232.95H1360.53V199.962H1331.79V232.95ZM1361.53 232.95H1390.98V199.962H1361.53V232.95ZM1391.98 232.95H1422.13V199.962H1391.98V232.95ZM1423.13 232.95H1452.58V199.962H1423.13V232.95ZM1453.58 232.95H1483.02V199.962H1453.58V232.95ZM1484.02 232.95H1513.47V199.962H1484.02V232.95ZM1514.47 232.95H1543.92V199.962H1514.47V232.95ZM1544.92 232.95H1574.36V199.962H1544.92V232.95ZM1574.36 166.684V198.962H1544.92V166.684H1574.36ZM1543.92 166.684V198.962H1514.47V166.684H1543.92ZM1513.47 166.684V198.962H1484.02V166.684H1513.47ZM1483.02 166.684V198.962H1453.58V166.684H1483.02ZM1452.58 166.684V198.962H1423.13V166.684H1452.58ZM1422.13 166.684V198.962H1391.98V166.684H1422.13ZM1390.98 166.684V198.962H1361.53V166.684H1390.98ZM1360.53 166.684V198.962H1331.79V166.684H1360.53ZM1330.79 166.684V198.962H1300.63V166.684H1330.79ZM1299.63 166.684V198.962H1270.19V166.684H1299.63ZM1269.19 166.684V198.962H1241.16V166.684H1269.19ZM1240.16 166.684V198.962H1210V166.684H1240.16ZM1209 166.684V198.962L1179.56 198.962V166.684L1209 166.684ZM1178.56 166.684V198.962H1149.12V166.684H1178.56ZM1148.12 166.684V198.962H1118.67V166.684H1148.12ZM1117.67 166.684V198.962H1088.22V166.684H1117.67ZM1087.22 166.684V198.962H1057.77V166.684H1087.22ZM1056.77 166.684V198.962H1027.33V166.684H1056.77ZM1026.33 166.684V198.962H996.882V166.684H1026.33ZM995.882 166.684V198.962H965.726V166.684H995.882ZM964.726 166.684V198.962H935.281V166.684H964.726ZM934.281 166.684V198.962H905.544V166.684H934.281ZM904.544 166.684V198.962H874.388V166.684H904.544ZM873.388 166.684V198.962H843.944V166.684H873.388ZM842.944 166.684V198.962H814.911V166.684H842.944ZM813.911 166.684V198.962H783.759V166.684H813.911ZM782.759 166.684V198.962H753.31V166.684H782.759ZM752.31 166.684V198.962H722.866V166.684H752.31ZM721.866 166.684V198.962H692.418V166.684H721.866ZM691.418 166.684V198.962H661.973V166.684H691.418ZM660.973 166.684V198.962H631.528V166.684H660.973ZM630.528 166.684V198.962H601.08V166.684H630.528ZM600.08 166.684V198.962H570.632V166.684H600.08ZM569.632 166.684V198.962H539.48V166.684H569.632ZM538.48 166.684V198.962H509.032V166.684H538.48ZM508.032 166.684V198.962H479.295V166.684H508.032ZM478.295 166.684V198.962H448.142V166.684H478.295ZM447.142 166.684V198.962H417.694V166.684H447.142ZM416.694 166.684V198.962H388.665V166.684H416.694ZM387.665 166.684V198.962L357.509 198.962V166.684L387.665 166.684ZM356.509 166.684V198.962H327.064V166.684H356.509ZM326.064 166.684V198.962H296.616V166.684H326.064ZM295.616 166.684V198.962H266.172V166.684H295.616ZM265.172 166.684V198.962H235.723V166.684H265.172ZM234.723 166.684V198.962H205.279V166.684H234.723ZM204.279 166.684V198.962H174.831V166.684H204.279ZM173.831 166.684V198.962H144.386V166.684H173.831ZM143.386 166.684V198.962H113.23V166.684H143.386ZM112.23 166.684V198.962H82.7856V166.684H112.23ZM81.7856 166.684V198.962H53.0486V166.684H81.7856ZM52.0486 166.684V198.962H21.8928V166.684H52.0486ZM20.8928 166.684V198.962H-8.55537L-8.55537 166.684H20.8928ZM-9.55537 166.684L-9.55537 198.962H-39L-39 166.684H-9.55537ZM-39 165.684H-9.55537L-9.55536 133.407H-39L-39 165.684ZM-8.55537 165.684H20.8928V133.407H-8.55536L-8.55537 165.684ZM21.8928 165.684H52.0486V133.407H21.8928V165.684ZM53.0486 165.684H81.7856V133.407H53.0486V165.684ZM82.7856 165.684H112.23V133.407H82.7856V165.684ZM113.23 165.684H143.386V133.407H113.23V165.684ZM144.386 165.684H173.831V133.407H144.386V165.684ZM174.831 165.684H204.279V133.407H174.831V165.684ZM205.279 165.684H234.723V133.407H205.279V165.684ZM235.723 165.684H265.172V133.407H235.723V165.684ZM266.172 165.684H295.616V133.407H266.172V165.684ZM296.616 165.684H326.064V133.407H296.616V165.684ZM327.064 165.684H356.509V133.407H327.064V165.684ZM357.509 165.684L387.665 165.684V133.407L357.509 133.407V165.684ZM388.665 165.684H416.694V133.407H388.665V165.684ZM417.694 165.684H447.142V133.407H417.694V165.684ZM448.142 165.684H478.295V133.407H448.142V165.684ZM479.295 165.684H508.032V133.407H479.295V165.684ZM509.032 165.684H538.48V133.407H509.032V165.684ZM539.48 165.684H569.632V133.407H539.48V165.684ZM570.632 165.684H600.08V133.407H570.632V165.684ZM601.08 165.684H630.528V133.407H601.08V165.684ZM631.528 165.684H660.973V133.407H631.528V165.684ZM661.973 165.684H691.418V133.407H661.973V165.684ZM692.418 165.684H721.866V133.407H692.418V165.684ZM722.866 165.684H752.31V133.407H722.866V165.684ZM753.31 165.684H782.759V133.407H753.31V165.684ZM783.759 165.684H813.911V133.407H783.759V165.684ZM814.911 165.684H842.944V133.407H814.911V165.684ZM843.944 165.684H873.388V133.407H843.944V165.684ZM874.388 165.684H904.544V133.407H874.388V165.684ZM905.544 165.684H934.281V133.407H905.544V165.684ZM935.281 165.684H964.726V133.407H935.281V165.684ZM965.726 165.684H995.882V133.407H965.726V165.684ZM996.882 165.684H1026.33V133.407H996.882V165.684ZM1027.33 165.684H1056.77V133.407H1027.33V165.684ZM1057.77 165.684H1087.22V133.407H1057.77V165.684ZM1088.22 165.684H1117.67V133.407H1088.22V165.684ZM1118.67 165.684H1148.12V133.407H1118.67V165.684ZM1149.12 165.684H1178.56V133.407H1149.12V165.684ZM1179.56 165.684L1209 165.684V133.407L1179.56 133.407V165.684ZM1210 165.684H1240.16V133.407H1210V165.684ZM1241.16 165.684H1269.19V133.407H1241.16V165.684ZM1270.19 165.684H1299.63V133.407H1270.19V165.684ZM1300.63 165.684H1330.79V133.407H1300.63V165.684ZM1331.79 165.684H1360.53V133.407H1331.79V165.684ZM1361.53 165.684H1390.98V133.407H1361.53V165.684ZM1391.98 165.684H1422.13V133.407H1391.98V165.684ZM1423.13 165.684H1452.58V133.407H1423.13V165.684ZM1453.58 165.684H1483.02V133.407H1453.58V165.684ZM1484.02 165.684H1513.47V133.407H1484.02V165.684ZM1514.47 165.684H1543.92V133.407H1514.47V165.684ZM1544.92 165.684H1574.36V133.407H1544.92V165.684ZM1574.36 100.836V132.407H1544.92V100.836H1574.36ZM1543.92 100.836V132.407H1514.47V100.836H1543.92ZM1513.47 100.836V132.407H1484.02V100.836H1513.47ZM1483.02 100.836V132.407H1453.58V100.836H1483.02ZM1452.58 100.836V132.407H1423.13V100.836H1452.58ZM1422.13 100.836V132.407H1391.98V100.836L1422.13 100.836ZM1390.98 100.836V132.407H1361.53V100.836H1390.98ZM1360.53 100.836V132.407H1331.79V100.836H1360.53ZM1330.79 100.836V132.407H1300.63V100.836H1330.79ZM1299.63 100.836V132.407H1270.19V100.836H1299.63ZM1269.19 100.836V132.407H1241.16V100.836H1269.19ZM1240.16 100.836V132.407H1210V100.836H1240.16ZM1209 100.836V132.407L1179.56 132.407V100.836H1209ZM1178.56 100.836V132.407H1149.12V100.836H1178.56ZM1148.12 100.836V132.407H1118.67V100.836H1148.12ZM1117.67 100.836V132.407H1088.22V100.836H1117.67ZM1087.22 100.836V132.407H1057.77V100.836H1087.22ZM1056.77 100.836V132.407H1027.33V100.836H1056.77ZM1026.33 100.836V132.407H996.882V100.836H1026.33ZM995.882 100.836V132.407H965.726V100.836L995.882 100.836ZM964.726 100.836V132.407H935.281V100.836H964.726ZM934.281 100.836V132.407H905.544V100.836H934.281ZM904.544 100.836V132.407H874.388V100.836H904.544ZM873.388 100.836V132.407H843.944V100.836H873.388ZM842.944 100.836V132.407H814.911V100.836H842.944ZM813.911 100.836V132.407H783.759V100.836H813.911ZM782.759 100.836V132.407H753.31V100.836H782.759ZM752.31 100.836V132.407H722.866V100.836H752.31ZM721.866 100.836V132.407H692.418V100.836H721.866ZM691.418 100.836V132.407H661.973V100.836H691.418ZM660.973 100.836V132.407H631.528V100.836H660.973ZM630.528 100.836V132.407H601.08V100.836H630.528ZM600.08 100.836V132.407H570.632V100.836L600.08 100.836ZM569.632 100.836V132.407H539.48V100.836H569.632ZM538.48 100.836V132.407H509.032V100.836H538.48ZM508.032 100.836V132.407H479.295V100.836H508.032ZM478.295 100.836V132.407H448.142V100.836H478.295ZM447.142 100.836V132.407H417.694V100.836H447.142ZM416.694 100.836V132.407H388.665V100.836H416.694ZM387.665 100.836V132.407L357.509 132.407V100.836H387.665ZM356.509 100.836V132.407H327.064V100.836H356.509ZM326.064 100.836V132.407H296.616V100.836H326.064ZM295.616 100.836V132.407H266.172V100.836H295.616ZM265.172 100.836V132.407H235.723V100.836H265.172ZM234.723 100.836V132.407H205.279V100.836H234.723ZM204.279 100.836V132.407H174.831V100.836H204.279ZM173.831 100.836V132.407H144.386V100.836L173.831 100.836ZM143.386 100.836V132.407H113.23V100.836H143.386ZM112.23 100.836V132.407H82.7856V100.836H112.23ZM81.7856 100.836V132.407H53.0486V100.836H81.7856ZM52.0486 100.836V132.407H21.8928V100.836H52.0486ZM20.8928 100.836V132.407H-8.55536L-8.55536 100.836H20.8928ZM-9.55536 100.836L-9.55536 132.407H-39L-39 100.836H-9.55536ZM-39 99.8357H-9.55536L-9.55536 67.5572H-39L-39 99.8357ZM-8.55536 99.8357H20.8928V67.5572H-8.55536L-8.55536 99.8357ZM21.8928 99.8357H52.0486V67.5572H21.8928V99.8357ZM53.0486 99.8357H81.7856V67.5572H53.0486V99.8357ZM82.7856 99.8357H112.23V67.5572H82.7856V99.8357ZM113.23 99.8357H143.386V67.5572H113.23V99.8357ZM144.386 99.8357L173.831 99.8357V67.5572L144.386 67.5572V99.8357ZM174.831 99.8357H204.279V67.5572H174.831V99.8357ZM205.279 99.8357H234.723V67.5572H205.279V99.8357ZM235.723 99.8357H265.172V67.5572H235.723V99.8357ZM266.172 99.8357H295.616V67.5572H266.172V99.8357ZM296.616 99.8357H326.064V67.5572H296.616V99.8357ZM327.064 99.8357H356.509V67.5572H327.064V99.8357ZM357.509 99.8357H387.665V67.5572H357.509V99.8357ZM388.665 99.8357H416.694V67.5572H388.665V99.8357ZM417.694 99.8357H447.142V67.5572H417.694V99.8357ZM448.142 99.8357H478.295V67.5572H448.142V99.8357ZM479.295 99.8357H508.032V67.5572H479.295V99.8357ZM509.032 99.8357H538.48V67.5572H509.032V99.8357ZM539.48 99.8357H569.632V67.5572H539.48V99.8357ZM570.632 99.8357L600.08 99.8358V67.5572L570.632 67.5572V99.8357ZM601.08 99.8358H630.528V67.5572H601.08V99.8358ZM631.528 99.8358H660.973V67.5572H631.528V99.8358ZM661.973 99.8358H691.418V67.5572H661.973V99.8358ZM692.418 99.8358H721.866V67.5572H692.418V99.8358ZM722.866 99.8358H752.31V67.5572H722.866V99.8358ZM753.31 99.8358H782.759V67.5572H753.31V99.8358ZM783.759 99.8358H813.911V67.5572H783.759V99.8358ZM814.911 99.8358H842.944V67.5572H814.911V99.8358ZM843.944 99.8358H873.388V67.5572H843.944V99.8358ZM874.388 99.8358H904.544V67.5572H874.388V99.8358ZM905.544 99.8358H934.281V67.5572H905.544V99.8358ZM935.281 99.8358H964.726V67.5572H935.281V99.8358ZM965.726 99.8358L995.882 99.8358V67.5572L965.726 67.5572V99.8358ZM996.882 99.8358H1026.33V67.5572H996.882V99.8358ZM1027.33 99.8358H1056.77V67.5572H1027.33V99.8358ZM1057.77 99.8358H1087.22V67.5572H1057.77V99.8358ZM1088.22 99.8358H1117.67V67.5572H1088.22V99.8358ZM1118.67 99.8358H1148.12V67.5572H1118.67V99.8358ZM1149.12 99.8358H1178.56V67.5572H1149.12V99.8358ZM1179.56 99.8358H1209V67.5572H1179.56V99.8358ZM1210 99.8358H1240.16V67.5572H1210V99.8358ZM1241.16 99.8358H1269.19V67.5572H1241.16V99.8358ZM1270.19 99.8358H1299.63V67.5572H1270.19V99.8358ZM1300.63 99.8358H1330.79V67.5572H1300.63V99.8358ZM1331.79 99.8358H1360.53V67.5572H1331.79V99.8358ZM1361.53 99.8358H1390.98V67.5572H1361.53V99.8358ZM1391.98 99.8358L1422.13 99.8358V67.5572L1391.98 67.5572V99.8358ZM1423.13 99.8358H1452.58V67.5572H1423.13V99.8358ZM1453.58 99.8358H1483.02V67.5572H1453.58V99.8358ZM1484.02 99.8358H1513.47V67.5572H1484.02V99.8358ZM1514.47 99.8358H1543.92V67.5572H1514.47V99.8358ZM1544.92 99.8358H1574.36V67.5572H1544.92V99.8358ZM1574.36 34.2786V66.5572H1544.92V34.2786H1574.36ZM1543.92 34.2786V66.5572H1514.47V34.2786H1543.92ZM1513.47 34.2786V66.5572H1484.02V34.2786L1513.47 34.2786ZM1483.02 34.2786V66.5572H1453.58V34.2786H1483.02ZM1452.58 34.2786V66.5572H1423.13V34.2786H1452.58ZM1422.13 34.2786V66.5572L1391.98 66.5572V34.2786H1422.13ZM1390.98 34.2786V66.5572H1361.53V34.2786H1390.98ZM1360.53 34.2786V66.5572H1331.79V34.2786H1360.53ZM1330.79 34.2786V66.5572H1300.63V34.2786H1330.79ZM1299.63 34.2786V66.5572H1270.19V34.2786L1299.63 34.2786ZM1269.19 34.2786V66.5572H1241.16V34.2786H1269.19ZM1240.16 34.2786V66.5572H1210V34.2786H1240.16ZM1209 34.2786V66.5572H1179.56V34.2786H1209ZM1178.56 34.2786V66.5572H1149.12V34.2786H1178.56ZM1148.12 34.2786V66.5572H1118.67V34.2786H1148.12ZM1117.67 34.2786V66.5572H1088.22V34.2786H1117.67ZM1087.22 34.2786V66.5572H1057.77V34.2786L1087.22 34.2786ZM1056.77 34.2786V66.5572H1027.33V34.2786H1056.77ZM1026.33 34.2786V66.5572H996.882V34.2786H1026.33ZM995.882 34.2786V66.5572L965.726 66.5572V34.2786H995.882ZM964.726 34.2786V66.5572H935.281V34.2786H964.726ZM934.281 34.2786V66.5572H905.544V34.2786H934.281ZM904.544 34.2786V66.5572H874.388V34.2786L904.544 34.2786ZM873.388 34.2786V66.5572H843.944V34.2786H873.388ZM842.944 34.2786V66.5572H814.911V34.2786H842.944ZM813.911 34.2786V66.5572H783.759V34.2786H813.911ZM782.759 34.2786V66.5572H753.31V34.2786H782.759ZM752.31 34.2786V66.5572H722.866V34.2786H752.31ZM721.866 34.2786V66.5572H692.418V34.2786H721.866ZM691.418 34.2786V66.5572H661.973V34.2786L691.418 34.2786ZM660.973 34.2786V66.5572H631.528V34.2786H660.973ZM630.528 34.2786V66.5572H601.08V34.2786H630.528ZM600.08 34.2786V66.5572L570.632 66.5572V34.2786H600.08ZM569.632 34.2786V66.5572H539.48V34.2786H569.632ZM538.48 34.2786V66.5572H509.032V34.2786H538.48ZM508.032 34.2786V66.5572H479.295V34.2786H508.032ZM478.295 34.2786V66.5572H448.142V34.2786L478.295 34.2786ZM447.142 34.2786V66.5572H417.694V34.2786H447.142ZM416.694 34.2786V66.5572H388.665V34.2786H416.694ZM387.665 34.2786V66.5572H357.509V34.2786H387.665ZM356.509 34.2786V66.5572H327.064V34.2786H356.509ZM326.064 34.2786V66.5572H296.616V34.2786H326.064ZM295.616 34.2786V66.5572H266.172V34.2786L295.616 34.2786ZM265.172 34.2786V66.5572H235.723V34.2786H265.172ZM234.723 34.2786V66.5572H205.279V34.2786H234.723ZM204.279 34.2786V66.5572H174.831V34.2786H204.279ZM173.831 34.2786V66.5572L144.386 66.5572V34.2786H173.831ZM143.386 34.2786V66.5572H113.23V34.2786H143.386ZM112.23 34.2786V66.5572H82.7856V34.2786H112.23ZM81.7856 34.2786V66.5572H53.0486V34.2786L81.7856 34.2786ZM52.0486 34.2786V66.5572H21.8928V34.2786H52.0486ZM20.8928 34.2786V66.5572H-8.55536L-8.55536 34.2786H20.8928ZM-9.55536 34.2786L-9.55536 66.5572H-39L-39 34.2786H-9.55536ZM-39 33.2786H-9.55536L-9.55536 1L-39 1L-39 33.2786ZM-8.55536 33.2786H20.8928V1L-8.55536 1L-8.55536 33.2786ZM21.8928 33.2786H52.0486V1L21.8928 1V33.2786ZM53.0486 33.2786L81.7856 33.2786V1L53.0486 1V33.2786ZM82.7856 33.2786H112.23V1L82.7856 1V33.2786ZM113.23 33.2786H143.386V1L113.23 1V33.2786ZM144.386 33.2786H173.831V1L144.386 1V33.2786ZM174.831 33.2786H204.279V1L174.831 1V33.2786ZM205.279 33.2786H234.723V1L205.279 1V33.2786ZM235.723 33.2786H265.172V1.00001L235.723 1V33.2786ZM266.172 33.2786L295.616 33.2786V1.00001L266.172 1.00001V33.2786ZM296.616 33.2786H326.064V1.00001L296.616 1.00001V33.2786ZM327.064 33.2786H356.509V1.00001L327.064 1.00001V33.2786ZM357.509 33.2786H387.665V1.00001L357.509 1.00001V33.2786ZM388.665 33.2786H416.694V1.00001L388.665 1.00001V33.2786ZM417.694 33.2786H447.142V1.00001L417.694 1.00001V33.2786ZM448.142 33.2786L478.295 33.2786V1.00001L448.142 1.00001V33.2786ZM479.295 33.2786H508.032V1.00001L479.295 1.00001V33.2786ZM509.032 33.2786H538.48V1.00001L509.032 1.00001V33.2786ZM539.48 33.2786H569.632V1.00001L539.48 1.00001V33.2786ZM570.632 33.2786H600.08V1.00001L570.632 1.00001V33.2786ZM601.08 33.2786H630.528V1.00001L601.08 1.00001V33.2786ZM631.528 33.2786H660.973V1.00001L631.528 1.00001V33.2786ZM661.973 33.2786L691.418 33.2786V1.00001L661.973 1.00001V33.2786ZM692.418 33.2786H721.866V1.00001L692.418 1.00001V33.2786ZM722.866 33.2786H752.31V1.00001L722.866 1.00001V33.2786ZM753.31 33.2786H782.759V1.00001L753.31 1.00001V33.2786ZM783.759 33.2786H813.911V1.00001L783.759 1.00001V33.2786ZM814.911 33.2786H842.944V1.00001L814.911 1.00001V33.2786ZM843.944 33.2786H873.388V1.00001L843.944 1.00001V33.2786ZM874.388 33.2786L904.544 33.2786V1.00002L874.388 1.00001V33.2786ZM905.544 33.2786H934.281V1.00002L905.544 1.00002V33.2786ZM935.281 33.2786H964.726V1.00002L935.281 1.00002V33.2786ZM965.726 33.2786H995.882V1.00002L965.726 1.00002V33.2786ZM996.882 33.2786H1026.33V1.00002L996.882 1.00002V33.2786ZM1027.33 33.2786H1056.77V1.00002L1027.33 1.00002V33.2786ZM1057.77 33.2786L1087.22 33.2786V1.00002L1057.77 1.00002V33.2786ZM1088.22 33.2786H1117.67V1.00002L1088.22 1.00002V33.2786ZM1118.67 33.2786H1148.12V1.00002L1118.67 1.00002V33.2786ZM1149.12 33.2786H1178.56V1.00002L1149.12 1.00002V33.2786ZM1179.56 33.2786H1209V1.00002L1179.56 1.00002V33.2786ZM1210 33.2786H1240.16V1.00002L1210 1.00002V33.2786ZM1241.16 33.2786H1269.19V1.00002L1241.16 1.00002V33.2786ZM1270.19 33.2786L1299.63 33.2786V1.00002L1270.19 1.00002V33.2786ZM1300.63 33.2786H1330.79V1.00002L1300.63 1.00002V33.2786ZM1331.79 33.2786H1360.53V1.00002L1331.79 1.00002V33.2786ZM1361.53 33.2786H1390.98V1.00002L1361.53 1.00002V33.2786ZM1391.98 33.2786H1422.13V1.00002L1391.98 1.00002V33.2786ZM1423.13 33.2786H1452.58V1.00002L1423.13 1.00002V33.2786ZM1453.58 33.2786H1483.02V1.00002L1453.58 1.00002V33.2786ZM1484.02 33.2786L1513.47 33.2786V1.00003L1484.02 1.00002V33.2786ZM1514.47 33.2786H1543.92V1.00003L1514.47 1.00003V33.2786ZM1544.92 33.2786H1574.36V1.00003L1544.92 1.00003V33.2786ZM1601.26 2.65683e-05V465.899V931.797H1602.26V465.899V2.66111e-05L1601.26 2.65683e-05ZM-9.55538 931.089H-39L-39 898.811H-9.55538V931.089ZM20.8928 931.089H-8.55538V898.811H20.8928V931.089ZM52.0486 931.089H21.8928V898.811H52.0486V931.089ZM81.7856 931.089H53.0486V898.811H81.7856V931.089ZM112.23 931.089H82.7856V898.811H112.23V931.089ZM143.386 931.089H113.23V898.811H143.386V931.089ZM173.831 931.089H144.386V898.811H173.831V931.089ZM204.279 931.089H174.831V898.811H204.279V931.089ZM234.723 931.089H205.279V898.811H234.723V931.089ZM265.172 931.089H235.723V898.811H265.172V931.089ZM295.616 931.089H266.172V898.811H295.616V931.089ZM326.064 931.089H296.616V898.811H326.064V931.089ZM356.509 931.089H327.064V898.811H356.509V931.089ZM387.665 931.089H357.509V898.811H387.665V931.089ZM416.694 931.089H388.665V898.811H416.694V931.089ZM447.142 931.089H417.694V898.811H447.142V931.089ZM478.295 931.089H448.142V898.811H478.295V931.089ZM508.032 931.089H479.295V898.811H508.032V931.089ZM538.48 931.089H509.032V898.811H538.48V931.089ZM569.632 931.089H539.48V898.811H569.632V931.089ZM600.08 931.089H570.632V898.811H600.08V931.089ZM630.528 931.089H601.08V898.811H630.528V931.089ZM660.973 931.089H631.528V898.811H660.973V931.089ZM691.418 931.089H661.973V898.811H691.418V931.089ZM721.866 931.089H692.418V898.811H721.866V931.089ZM752.31 931.089H722.866V898.811H752.31V931.089ZM782.759 931.089H753.31V898.811H782.759V931.089ZM813.911 931.089H783.759V898.811H813.911V931.089ZM842.944 931.089H814.911V898.811H842.944V931.089ZM873.388 931.089H843.944V898.811H873.388V931.089ZM904.544 931.089H874.388V898.811H904.544V931.089ZM934.281 931.089H905.544V898.811H934.281V931.089ZM964.726 931.089H935.281V898.811H964.726V931.089ZM995.882 931.089H965.726V898.811H995.882V931.089ZM1026.33 931.089H996.882V898.811H1026.33V931.089ZM1056.77 931.089H1027.33V898.811H1056.77V931.089ZM1087.22 931.089H1057.77V898.811H1087.22V931.089ZM1117.67 931.089H1088.22V898.811H1117.67V931.089ZM1148.12 931.089H1118.67V898.811H1148.12V931.089ZM1178.56 931.089H1149.12V898.811H1178.56V931.089ZM1209 931.089H1179.56V898.811H1209V931.089ZM1240.16 931.089H1210V898.811H1240.16V931.089ZM1269.19 931.089H1241.16V898.811H1269.19V931.089ZM1299.63 931.089H1270.19V898.811H1299.63V931.089ZM1330.79 931.089H1300.63V898.811H1330.79V931.089ZM1360.53 931.089H1331.79V898.811H1360.53V931.089ZM1390.98 931.089H1361.53V898.811H1390.98V931.089ZM1422.13 931.089H1391.98V898.811H1422.13V931.089ZM1452.58 931.089H1423.13V898.811H1452.58V931.089ZM1483.02 931.089H1453.58V898.811H1483.02V931.089ZM1513.47 931.089H1484.02V898.811H1513.47V931.089ZM1543.92 931.089H1514.47V898.811H1543.92V931.089ZM1574.36 931.089H1544.92V898.811H1574.36V931.089ZM1574.36 897.811V865.532H1544.92V897.811H1574.36ZM1543.92 897.811V865.532H1514.47V897.811H1543.92ZM1513.47 897.811V865.532H1484.02V897.811H1513.47ZM1483.02 897.811V865.532H1453.58V897.811H1483.02ZM1452.58 897.811V865.532H1423.13V897.811H1452.58ZM1422.13 897.811V865.532H1391.98V897.811H1422.13ZM1390.98 897.811V865.532H1361.53V897.811H1390.98ZM1360.53 897.811V865.532H1331.79V897.811H1360.53ZM1330.79 897.811V865.532H1300.63V897.811H1330.79ZM1299.63 897.811V865.532H1270.19V897.811H1299.63ZM1269.19 897.811V865.532H1241.16V897.811H1269.19ZM1240.16 897.811V865.532H1210V897.811H1240.16ZM1209 897.811V865.532H1179.56V897.811H1209ZM1178.56 897.811V865.532H1149.12V897.811H1178.56ZM1148.12 897.811V865.532H1118.67V897.811H1148.12ZM1117.67 897.811V865.532H1088.22V897.811H1117.67ZM1087.22 897.811V865.532H1057.77V897.811H1087.22ZM1056.77 897.811V865.532H1027.33V897.811H1056.77ZM1026.33 897.811V865.532H996.882V897.811H1026.33ZM995.882 897.811V865.532H965.726V897.811H995.882ZM964.726 897.811V865.532H935.281V897.811H964.726ZM934.281 897.811V865.532H905.544V897.811H934.281ZM904.544 897.811V865.532H874.388V897.811H904.544ZM873.388 897.811V865.532H843.944V897.811H873.388ZM842.944 897.811V865.532H814.911V897.811H842.944ZM813.911 897.811V865.532H783.759V897.811H813.911ZM782.759 897.811V865.532H753.31V897.811H782.759ZM752.31 897.811V865.532H722.866V897.811H752.31ZM721.866 897.811V865.532H692.418V897.811H721.866ZM691.418 897.811V865.532H661.973V897.811H691.418ZM660.973 897.811V865.532H631.528V897.811H660.973ZM630.528 897.811V865.532H601.08V897.811H630.528ZM600.08 897.811V865.532H570.632V897.811H600.08ZM569.632 897.811V865.532H539.48V897.811H569.632ZM538.48 897.811V865.532H509.032V897.811H538.48ZM508.032 897.811V865.532H479.295V897.811H508.032ZM478.295 897.811V865.532H448.142V897.811H478.295ZM447.142 897.811V865.532H417.694V897.811H447.142ZM416.694 897.811V865.532H388.665V897.811H416.694ZM387.665 897.811V865.532H357.509V897.811H387.665ZM356.509 897.811V865.532H327.064V897.811H356.509ZM326.064 897.811V865.532H296.616V897.811H326.064ZM295.616 897.811V865.532H266.172V897.811H295.616ZM265.172 897.811V865.532H235.723V897.811H265.172ZM234.723 897.811V865.532H205.279V897.811H234.723ZM204.279 897.811V865.532H174.831V897.811H204.279ZM173.831 897.811V865.532H144.386V897.811H173.831ZM143.386 897.811V865.532H113.23V897.811H143.386ZM112.23 897.811V865.532H82.7856V897.811H112.23ZM81.7856 897.811V865.532H53.0486V897.811H81.7856ZM52.0486 897.811V865.532H21.8928V897.811H52.0486ZM20.8928 897.811V865.532H-8.55538V897.811H20.8928ZM-9.55538 897.811V865.532H-39L-39 897.811H-9.55538ZM-9.55538 864.532H-39L-39 832.253H-9.55538V864.532ZM20.8928 864.532H-8.55538V832.253H20.8928V864.532ZM52.0486 864.532H21.8928V832.253H52.0486V864.532ZM81.7856 864.532H53.0486V832.253H81.7856V864.532ZM112.23 864.532H82.7856V832.253H112.23V864.532ZM143.386 864.532H113.23V832.253H143.386V864.532ZM173.831 864.532H144.386V832.253H173.831V864.532ZM204.279 864.532H174.831V832.253H204.279V864.532ZM234.723 864.532H205.279V832.253H234.723V864.532ZM265.172 864.532H235.723V832.253H265.172V864.532ZM295.616 864.532H266.172V832.253H295.616V864.532ZM326.064 864.532H296.616V832.253H326.064V864.532ZM356.509 864.532H327.064V832.253H356.509V864.532ZM387.665 864.532H357.509V832.253H387.665V864.532ZM416.694 864.532H388.665V832.253H416.694V864.532ZM447.142 864.532H417.694V832.253H447.142V864.532ZM478.295 864.532H448.142V832.253H478.295V864.532ZM508.032 864.532H479.295V832.253H508.032V864.532ZM538.48 864.532H509.032V832.253H538.48V864.532ZM569.632 864.532H539.48V832.253H569.632V864.532ZM600.08 864.532H570.632V832.253H600.08V864.532ZM630.528 864.532H601.08V832.253H630.528V864.532ZM660.973 864.532H631.528V832.253H660.973V864.532ZM691.418 864.532H661.973V832.253H691.418V864.532ZM721.866 864.532H692.418V832.253H721.866V864.532ZM752.31 864.532H722.866V832.253H752.31V864.532ZM782.759 864.532H753.31V832.253L782.759 832.253V864.532ZM813.911 864.532H783.759V832.253H813.911V864.532ZM842.944 864.532H814.911V832.253H842.944V864.532ZM873.388 864.532H843.944V832.253H873.388V864.532ZM904.544 864.532H874.388V832.253H904.544V864.532ZM934.281 864.532H905.544V832.253H934.281V864.532ZM964.726 864.532H935.281V832.253H964.726V864.532ZM995.882 864.532H965.726V832.253H995.882V864.532ZM1026.33 864.532H996.882V832.253H1026.33V864.532ZM1056.77 864.532H1027.33V832.253H1056.77V864.532ZM1087.22 864.532H1057.77V832.253H1087.22V864.532ZM1117.67 864.532H1088.22V832.253H1117.67V864.532ZM1148.12 864.532H1118.67V832.253H1148.12V864.532ZM1178.56 864.532H1149.12V832.253H1178.56V864.532ZM1209 864.532H1179.56V832.253H1209V864.532ZM1240.16 864.532H1210V832.253H1240.16V864.532ZM1269.19 864.532H1241.16V832.253H1269.19V864.532ZM1299.63 864.532H1270.19V832.253H1299.63V864.532ZM1330.79 864.532H1300.63V832.253H1330.79V864.532ZM1360.53 864.532H1331.79V832.253H1360.53V864.532ZM1390.98 864.532H1361.53V832.253H1390.98V864.532ZM1422.13 864.532H1391.98V832.253H1422.13V864.532ZM1452.58 864.532H1423.13V832.253H1452.58V864.532ZM1483.02 864.532H1453.58V832.253H1483.02V864.532ZM1513.47 864.532H1484.02V832.253H1513.47V864.532ZM1543.92 864.532H1514.47V832.253H1543.92V864.532ZM1574.36 864.532H1544.92V832.253H1574.36V864.532ZM1574.36 831.253V798.975H1544.92V831.253H1574.36ZM1543.92 831.253V798.975H1514.47V831.253H1543.92ZM1513.47 831.253V798.975H1484.02V831.253H1513.47ZM1483.02 831.253V798.975H1453.58V831.253H1483.02ZM1452.58 831.253V798.975H1423.13V831.253H1452.58ZM1422.13 831.253V798.975H1391.98V831.253H1422.13ZM1390.98 831.253V798.975H1361.53V831.253H1390.98ZM1360.53 831.253V798.975H1331.79V831.253H1360.53ZM1330.79 831.253V798.975H1300.63V831.253H1330.79ZM1299.63 831.253V798.975H1270.19V831.253H1299.63ZM1269.19 831.253V798.975H1241.16V831.253H1269.19ZM1240.16 831.253V798.975H1210V831.253H1240.16ZM1209 831.253V798.975H1179.56V831.253H1209ZM1178.56 831.253V798.975H1149.12V831.253H1178.56ZM1148.12 831.253V798.975H1118.67V831.253H1148.12ZM1117.67 831.253V798.975H1088.22V831.253H1117.67ZM1087.22 831.253V798.975H1057.77V831.253H1087.22ZM1056.77 831.253V798.975H1027.33V831.253H1056.77ZM1026.33 831.253V798.975H996.882V831.253H1026.33ZM995.882 831.253V798.975H965.726V831.253H995.882ZM964.726 831.253V798.975H935.281V831.253H964.726ZM934.281 831.253V798.975H905.544V831.253H934.281ZM904.544 831.253V798.975H874.388V831.253H904.544ZM873.388 831.253V798.975H843.944V831.253H873.388ZM842.944 831.253V798.975H814.911V831.253H842.944ZM813.911 831.253V798.975H783.759V831.253H813.911ZM782.759 831.253V798.975L753.31 798.975V831.253L782.759 831.253ZM752.31 831.253V798.975H722.866V831.253H752.31ZM721.866 831.253V798.975H692.418V831.253H721.866ZM691.418 831.253V798.975H661.973V831.253H691.418ZM660.973 831.253V798.975H631.528V831.253H660.973ZM630.528 831.253V798.975H601.08V831.253H630.528ZM600.08 831.253V798.975H570.632V831.253H600.08ZM569.632 831.253V798.975H539.48V831.253H569.632ZM538.48 831.253V798.975H509.032V831.253H538.48ZM508.032 831.253V798.975H479.295V831.253H508.032ZM478.295 831.253V798.975H448.142V831.253H478.295ZM447.142 831.253V798.975H417.694V831.253H447.142ZM416.694 831.253V798.975H388.665V831.253H416.694ZM387.665 831.253V798.975H357.509V831.253H387.665ZM356.509 831.253V798.975H327.064V831.253H356.509ZM326.064 831.253V798.975H296.616V831.253H326.064ZM295.616 831.253V798.975H266.172V831.253H295.616ZM265.172 831.253V798.975H235.723V831.253H265.172ZM234.723 831.253V798.975H205.279V831.253H234.723ZM204.279 831.253V798.975H174.831V831.253H204.279ZM173.831 831.253V798.975H144.386V831.253H173.831ZM143.386 831.253V798.975H113.23V831.253H143.386ZM112.23 831.253V798.975H82.7856V831.253H112.23ZM81.7856 831.253V798.975H53.0486V831.253H81.7856ZM52.0486 831.253V798.975H21.8928V831.253H52.0486ZM20.8928 831.253V798.975H-8.55537V831.253H20.8928ZM-9.55537 831.253V798.975H-39L-39 831.253H-9.55537ZM-9.55537 797.975H-39L-39 766.406H-9.55537V797.975ZM20.8928 797.975H-8.55537V766.406H20.8928V797.975ZM52.0486 797.975H21.8928V766.406H52.0486V797.975ZM81.7856 797.975H53.0486V766.406H81.7856V797.975ZM112.23 797.975H82.7856V766.406H112.23V797.975ZM143.386 797.975H113.23V766.406H143.386V797.975ZM173.831 797.975H144.386V766.406H173.831V797.975ZM204.279 797.975H174.831V766.406H204.279V797.975ZM234.723 797.975H205.279V766.406H234.723V797.975ZM265.172 797.975H235.723V766.406H265.172V797.975ZM295.616 797.975H266.172V766.406H295.616V797.975ZM326.064 797.975H296.616V766.406H326.064V797.975ZM356.509 797.975H327.064V766.406H356.509V797.975ZM387.665 797.975H357.509V766.406H387.665V797.975ZM416.694 797.975H388.665V766.406H416.694V797.975ZM447.142 797.975H417.694V766.406H447.142V797.975ZM478.295 797.975H448.142V766.406H478.295V797.975ZM508.032 797.975H479.295V766.406H508.032V797.975ZM538.48 797.975H509.032V766.406H538.48V797.975ZM569.632 797.975H539.48V766.406H569.632V797.975ZM600.08 797.975H570.632V766.406H600.08V797.975ZM630.528 797.975H601.08V766.406H630.528V797.975ZM660.973 797.975H631.528V766.406H660.973V797.975ZM691.418 797.975H661.973V766.406H691.418V797.975ZM721.866 797.975H692.418V766.406H721.866V797.975ZM752.31 797.975H722.866V766.406H752.31V797.975ZM782.759 797.975L753.31 797.975V766.406L782.759 766.406V797.975ZM813.911 797.975H783.759V766.406H813.911V797.975ZM842.944 797.975H814.911V766.406H842.944V797.975ZM873.388 797.975H843.944V766.406H873.388V797.975ZM904.544 797.975H874.388V766.406H904.544V797.975ZM934.281 797.975H905.544V766.406H934.281V797.975ZM964.726 797.975H935.281V766.406H964.726V797.975ZM995.882 797.975H965.726V766.406H995.882V797.975ZM1026.33 797.975H996.882V766.406H1026.33V797.975ZM1056.77 797.975H1027.33V766.406H1056.77V797.975ZM1087.22 797.975H1057.77V766.406H1087.22V797.975ZM1117.67 797.975H1088.22V766.406H1117.67V797.975ZM1148.12 797.975H1118.67V766.406H1148.12V797.975ZM1178.56 797.975H1149.12V766.406H1178.56V797.975ZM1209 797.975H1179.56V766.406H1209V797.975ZM1240.16 797.975H1210V766.406H1240.16V797.975ZM1269.19 797.975H1241.16V766.406H1269.19V797.975ZM1299.63 797.975H1270.19V766.406H1299.63V797.975ZM1330.79 797.975H1300.63V766.406H1330.79V797.975ZM1360.53 797.975H1331.79V766.406H1360.53V797.975ZM1390.98 797.975H1361.53V766.406H1390.98V797.975ZM1422.13 797.975H1391.98V766.406H1422.13V797.975ZM1452.58 797.975H1423.13V766.406H1452.58V797.975ZM1483.02 797.975H1453.58V766.406H1483.02V797.975ZM1513.47 797.975H1484.02V766.406H1513.47V797.975ZM1543.92 797.975H1514.47V766.406H1543.92V797.975ZM1574.36 797.975H1544.92V766.406H1574.36V797.975ZM1574.36 765.406V733.127H1544.92V765.406H1574.36ZM1543.92 765.406V733.127H1514.47V765.406H1543.92ZM1513.47 765.406V733.127H1484.02V765.406H1513.47ZM1483.02 765.406V733.127H1453.58V765.406H1483.02ZM1452.58 765.406V733.127H1423.13V765.406H1452.58ZM1422.13 765.406V733.127H1391.98V765.406H1422.13ZM1390.98 765.406V733.127H1361.53V765.406H1390.98ZM1360.53 765.406V733.127H1331.79V765.406H1360.53ZM1330.79 765.406V733.127H1300.63V765.406H1330.79ZM1299.63 765.406V733.127H1270.19V765.406H1299.63ZM1269.19 765.406V733.127H1241.16V765.406H1269.19ZM1240.16 765.406V733.127H1210V765.406H1240.16ZM1209 765.406V733.127H1179.56V765.406H1209ZM1178.56 765.406V733.127H1149.12V765.406H1178.56ZM1148.12 765.406V733.127H1118.67V765.406H1148.12ZM1117.67 765.406V733.127H1088.22V765.406H1117.67ZM1087.22 765.406V733.127H1057.77V765.406H1087.22ZM1056.77 765.406V733.127H1027.33V765.406H1056.77ZM1026.33 765.406V733.127H996.882V765.406H1026.33ZM995.882 765.406V733.127H965.726V765.406H995.882ZM964.726 765.406V733.127H935.281V765.406H964.726ZM934.281 765.406V733.127H905.544V765.406H934.281ZM904.544 765.406V733.127H874.388V765.406H904.544ZM873.388 765.406V733.127H843.944V765.406H873.388ZM842.944 765.406V733.127H814.911V765.406H842.944ZM813.911 765.406V733.127H783.759V765.406H813.911ZM782.759 765.406V733.127L753.31 733.127V765.406L782.759 765.406ZM752.31 765.406V733.127H722.866V765.406H752.31ZM721.866 765.406V733.127H692.418V765.406H721.866ZM691.418 765.406V733.127H661.973V765.406H691.418ZM660.973 765.406V733.127H631.528V765.406H660.973ZM630.528 765.406V733.127H601.08V765.406H630.528ZM600.08 765.406V733.127H570.632V765.406H600.08ZM569.632 765.406V733.127H539.48V765.406H569.632ZM538.48 765.406V733.127H509.032V765.406H538.48ZM508.032 765.406V733.127H479.295V765.406H508.032ZM478.295 765.406V733.127H448.142V765.406H478.295ZM447.142 765.406V733.127H417.694V765.406H447.142ZM416.694 765.406V733.127H388.665V765.406H416.694ZM387.665 765.406V733.127H357.509V765.406H387.665ZM356.509 765.406V733.127H327.064V765.406H356.509ZM326.064 765.406V733.127H296.616V765.406H326.064ZM295.616 765.406V733.127H266.172V765.406H295.616ZM265.172 765.406V733.127H235.723V765.406H265.172ZM234.723 765.406V733.127H205.279V765.406H234.723ZM204.279 765.406V733.127H174.831V765.406H204.279ZM173.831 765.406V733.127H144.386V765.406H173.831ZM143.386 765.406V733.127H113.23V765.406H143.386ZM112.23 765.406V733.127H82.7856V765.406H112.23ZM81.7856 765.406V733.127H53.0486V765.406H81.7856ZM52.0486 765.406V733.127H21.8928V765.406H52.0486ZM20.8928 765.406V733.127H-8.55537V765.406H20.8928ZM-9.55537 765.406V733.127H-39L-39 765.406H-9.55537ZM-9.55537 732.127H-39L-39 699.848H-9.55537L-9.55537 732.127ZM20.8928 732.127H-8.55537L-8.55537 699.848H20.8928V732.127ZM52.0486 732.127H21.8928V699.848H52.0486V732.127ZM81.7856 732.127H53.0486V699.848H81.7856V732.127ZM112.23 732.127H82.7856V699.848H112.23V732.127ZM143.386 732.127H113.23V699.848H143.386V732.127ZM173.831 732.127H144.386V699.848H173.831V732.127ZM204.279 732.127H174.831V699.848H204.279V732.127ZM234.723 732.127H205.279V699.848H234.723V732.127ZM265.172 732.127H235.723V699.848H265.172V732.127ZM295.616 732.127H266.172V699.848H295.616V732.127ZM326.064 732.127H296.616V699.848H326.064V732.127ZM356.509 732.127H327.064V699.848H356.509V732.127ZM387.665 732.127H357.509V699.848H387.665V732.127ZM416.694 732.127H388.665V699.848H416.694V732.127ZM447.142 732.127H417.694V699.848H447.142V732.127ZM478.295 732.127H448.142V699.848H478.295V732.127ZM508.032 732.127H479.295V699.848H508.032V732.127ZM538.48 732.127H509.032V699.848H538.48V732.127ZM569.632 732.127H539.48V699.848H569.632V732.127ZM600.08 732.127H570.632V699.848H600.08V732.127ZM630.528 732.127H601.08V699.848H630.528V732.127ZM660.973 732.127H631.528V699.848H660.973V732.127ZM691.418 732.127H661.973V699.848H691.418V732.127ZM721.866 732.127H692.418V699.848H721.866V732.127ZM752.31 732.127H722.866V699.848H752.31V732.127ZM782.759 732.127L753.31 732.127V699.848H782.759V732.127ZM813.911 732.127H783.759V699.848H813.911V732.127ZM842.944 732.127H814.911V699.848H842.944V732.127ZM873.388 732.127H843.944V699.848H873.388V732.127ZM904.544 732.127H874.388V699.848H904.544V732.127ZM934.281 732.127H905.544V699.848H934.281V732.127ZM964.726 732.127H935.281V699.848H964.726V732.127ZM995.882 732.127H965.726V699.848H995.882V732.127ZM1026.33 732.127H996.882V699.848H1026.33V732.127ZM1056.77 732.127H1027.33V699.848H1056.77V732.127ZM1087.22 732.127H1057.77V699.848H1087.22V732.127ZM1117.67 732.127H1088.22V699.848H1117.67V732.127ZM1148.12 732.127H1118.67V699.848H1148.12V732.127ZM1178.56 732.127H1149.12V699.848H1178.56V732.127ZM1209 732.127H1179.56V699.848L1209 699.848V732.127ZM1240.16 732.127H1210V699.848H1240.16V732.127ZM1269.19 732.127H1241.16V699.848H1269.19V732.127ZM1299.63 732.127H1270.19V699.848H1299.63V732.127ZM1330.79 732.127H1300.63V699.848H1330.79V732.127ZM1360.53 732.127H1331.79V699.848H1360.53V732.127ZM1390.98 732.127H1361.53V699.848H1390.98V732.127ZM1422.13 732.127H1391.98V699.848H1422.13V732.127ZM1452.58 732.127H1423.13V699.848H1452.58V732.127ZM1483.02 732.127H1453.58V699.848H1483.02V732.127ZM1513.47 732.127H1484.02V699.848H1513.47V732.127ZM1543.92 732.127H1514.47V699.848H1543.92V732.127ZM1574.36 732.127H1544.92V699.848H1574.36V732.127ZM1574.36 698.848V665.86H1544.92V698.848H1574.36ZM1543.92 698.848V665.86H1514.47V698.848H1543.92ZM1513.47 698.848V665.86H1484.02V698.848H1513.47ZM1483.02 698.848V665.86H1453.58V698.848H1483.02ZM1452.58 698.848V665.86H1423.13V698.848H1452.58ZM1422.13 698.848V665.86H1391.98V698.848H1422.13ZM1390.98 698.848V665.86H1361.53V698.848H1390.98ZM1360.53 698.848V665.86H1331.79V698.848H1360.53ZM1330.79 698.848V665.86H1300.63V698.848H1330.79ZM1299.63 698.848V665.86H1270.19V698.848H1299.63ZM1269.19 698.848V665.86H1241.16V698.848H1269.19ZM1240.16 698.848V665.86H1210V698.848H1240.16ZM1209 698.848V665.86H1179.56V698.848L1209 698.848ZM1178.56 698.848V665.86H1149.12V698.848H1178.56ZM1148.12 698.848V665.86H1118.67V698.848H1148.12ZM1117.67 698.848V665.86H1088.22V698.848H1117.67ZM1087.22 698.848V665.86H1057.77V698.848H1087.22ZM1056.77 698.848V665.86H1027.33V698.848H1056.77ZM1026.33 698.848V665.86H996.882V698.848H1026.33ZM995.882 698.848V665.86H965.726V698.848H995.882ZM964.726 698.848V665.86H935.281V698.848H964.726ZM934.281 698.848V665.86H905.544V698.848H934.281ZM904.544 698.848V665.86H874.388V698.848H904.544ZM873.388 698.848V665.86H843.944V698.848H873.388ZM842.944 698.848V665.86H814.911V698.848H842.944ZM813.911 698.848V665.86H783.759V698.848H813.911ZM782.759 698.848V665.86H753.31V698.848H782.759ZM752.31 698.848V665.86H722.866V698.848H752.31ZM721.866 698.848V665.86H692.418V698.848H721.866ZM691.418 698.848V665.86H661.973V698.848H691.418ZM660.973 698.848V665.86H631.528V698.848H660.973ZM630.528 698.848V665.86H601.08V698.848H630.528ZM600.08 698.848V665.86H570.632V698.848H600.08ZM569.632 698.848V665.86H539.48V698.848H569.632ZM538.48 698.848V665.86H509.032V698.848H538.48ZM508.032 698.848V665.86H479.295V698.848H508.032ZM478.295 698.848V665.86H448.142V698.848H478.295ZM447.142 698.848V665.86H417.694V698.848H447.142ZM416.694 698.848V665.86H388.665V698.848H416.694ZM387.665 698.848V665.86H357.509V698.848H387.665ZM356.509 698.848V665.86H327.064V698.848H356.509ZM326.064 698.848V665.86H296.616V698.848H326.064ZM295.616 698.848V665.86H266.172V698.848H295.616ZM265.172 698.848V665.86H235.723V698.848H265.172ZM234.723 698.848V665.86H205.279V698.848H234.723ZM204.279 698.848V665.86H174.831V698.848H204.279ZM173.831 698.848V665.86H144.386V698.848H173.831ZM143.386 698.848V665.86H113.23V698.848H143.386ZM112.23 698.848V665.86H82.7856V698.848H112.23ZM81.7856 698.848V665.86H53.0486V698.848H81.7856ZM52.0486 698.848V665.86H21.8928V698.848H52.0486ZM20.8928 698.848V665.86H-8.55537L-8.55537 698.848H20.8928ZM-9.55537 698.848L-9.55537 665.86H-39L-39 698.848H-9.55537ZM-9.55537 664.86H-39L-39 632.584H-9.55537L-9.55537 664.86ZM20.8928 664.86H-8.55537L-8.55537 632.584H20.8928V664.86ZM52.0486 664.86H21.8928V632.584H52.0486V664.86ZM81.7856 664.86H53.0486V632.584H81.7856V664.86ZM112.23 664.86H82.7856V632.584H112.23V664.86ZM143.386 664.86H113.23V632.584H143.386V664.86ZM173.831 664.86H144.386V632.584H173.831V664.86ZM204.279 664.86H174.831V632.584H204.279V664.86ZM234.723 664.86H205.279V632.584H234.723V664.86ZM265.172 664.86H235.723V632.584H265.172V664.86ZM295.616 664.86H266.172V632.584H295.616V664.86ZM326.064 664.86H296.616V632.584H326.064V664.86ZM356.509 664.86H327.064V632.584H356.509V664.86ZM387.665 664.86H357.509V632.584H387.665V664.86ZM416.694 664.86H388.665V632.584H416.694V664.86ZM447.142 664.86H417.694V632.584H447.142V664.86ZM478.295 664.86H448.142V632.584H478.295V664.86ZM508.032 664.86H479.295V632.584H508.032V664.86ZM538.48 664.86H509.032V632.584H538.48V664.86ZM569.632 664.86H539.48V632.584H569.632V664.86ZM600.08 664.86H570.632V632.584H600.08V664.86ZM630.528 664.86H601.08V632.584H630.528V664.86ZM660.973 664.86H631.528V632.584H660.973V664.86ZM691.418 664.86H661.973V632.584H691.418V664.86ZM721.866 664.86H692.418V632.584H721.866V664.86ZM752.31 664.86H722.866V632.584H752.31V664.86ZM782.759 664.86H753.31V632.584H782.759V664.86ZM813.911 664.86H783.759V632.584H813.911V664.86ZM842.944 664.86H814.911V632.584H842.944V664.86ZM873.388 664.86H843.944V632.584H873.388V664.86ZM904.544 664.86H874.388V632.584H904.544V664.86ZM934.281 664.86H905.544V632.584H934.281V664.86ZM964.726 664.86H935.281V632.584H964.726V664.86ZM995.882 664.86H965.726V632.584H995.882V664.86ZM1026.33 664.86H996.882V632.584H1026.33V664.86ZM1056.77 664.86H1027.33V632.584H1056.77V664.86ZM1087.22 664.86H1057.77V632.584H1087.22V664.86ZM1117.67 664.86H1088.22V632.584H1117.67V664.86ZM1148.12 664.86H1118.67V632.584H1148.12V664.86ZM1178.56 664.86H1149.12V632.584H1178.56V664.86ZM1209 664.86H1179.56V632.584L1209 632.584V664.86ZM1240.16 664.86H1210V632.584H1240.16V664.86ZM1269.19 664.86H1241.16V632.584H1269.19V664.86ZM1299.63 664.86H1270.19V632.584H1299.63V664.86ZM1330.79 664.86H1300.63V632.584H1330.79V664.86ZM1360.53 664.86H1331.79V632.584H1360.53V664.86ZM1390.98 664.86H1361.53V632.584H1390.98V664.86ZM1422.13 664.86H1391.98V632.584H1422.13V664.86ZM1452.58 664.86H1423.13V632.584H1452.58V664.86ZM1483.02 664.86H1453.58V632.584H1483.02V664.86ZM1513.47 664.86H1484.02V632.584H1513.47V664.86ZM1543.92 664.86H1514.47V632.584H1543.92V664.86ZM1574.36 664.86H1544.92V632.584H1574.36V664.86ZM1574.36 631.584V599.305H1544.92V631.584H1574.36ZM1543.92 631.584V599.305H1514.47V631.584H1543.92ZM1513.47 631.584V599.305H1484.02V631.584H1513.47ZM1483.02 631.584V599.305H1453.58V631.584H1483.02ZM1452.58 631.584V599.305H1423.13V631.584H1452.58ZM1422.13 631.584V599.305H1391.98V631.584H1422.13ZM1390.98 631.584V599.305H1361.53V631.584H1390.98ZM1360.53 631.584V599.305H1331.79V631.584H1360.53ZM1330.79 631.584V599.305H1300.63V631.584H1330.79ZM1299.63 631.584V599.305H1270.19V631.584H1299.63ZM1269.19 631.584V599.305H1241.16V631.584H1269.19ZM1240.16 631.584V599.305H1210V631.584H1240.16ZM1209 631.584V599.305H1179.56V631.584L1209 631.584ZM1178.56 631.584V599.305H1149.12V631.584H1178.56ZM1148.12 631.584V599.305H1118.67V631.584H1148.12ZM1117.67 631.584V599.305H1088.22V631.584H1117.67ZM1087.22 631.584V599.305H1057.77V631.584H1087.22ZM1056.77 631.584V599.305H1027.33V631.584H1056.77ZM1026.33 631.584V599.305H996.882V631.584H1026.33ZM995.882 631.584V599.305H965.726V631.584H995.882ZM964.726 631.584V599.305H935.281V631.584H964.726ZM934.281 631.584V599.305H905.544V631.584H934.281ZM904.544 631.584V599.305H874.388V631.584H904.544ZM873.388 631.584V599.305H843.944V631.584H873.388ZM842.944 631.584V599.305H814.911V631.584H842.944ZM813.911 631.584V599.305H783.759V631.584H813.911ZM782.759 631.584V599.305H753.31V631.584H782.759ZM752.31 631.584V599.305H722.866V631.584H752.31ZM721.866 631.584V599.305H692.418V631.584H721.866ZM691.418 631.584V599.305H661.973V631.584H691.418ZM660.973 631.584V599.305H631.528V631.584H660.973ZM630.528 631.584V599.305H601.08V631.584H630.528ZM600.08 631.584V599.305H570.632V631.584H600.08ZM569.632 631.584V599.305H539.48V631.584H569.632ZM538.48 631.584V599.305H509.032V631.584H538.48ZM508.032 631.584V599.305H479.295V631.584H508.032ZM478.295 631.584V599.305H448.142V631.584H478.295ZM447.142 631.584V599.305H417.694V631.584H447.142ZM416.694 631.584V599.305H388.665V631.584H416.694ZM387.665 631.584V599.305H357.509V631.584H387.665ZM356.509 631.584V599.305H327.064V631.584H356.509ZM326.064 631.584V599.305H296.616V631.584H326.064ZM295.616 631.584V599.305H266.172V631.584H295.616ZM265.172 631.584V599.305H235.723V631.584H265.172ZM234.723 631.584V599.305H205.279V631.584H234.723ZM204.279 631.584V599.305H174.831V631.584H204.279ZM173.831 631.584V599.305H144.386V631.584H173.831ZM143.386 631.584V599.305H113.23V631.584H143.386ZM112.23 631.584V599.305H82.7856V631.584H112.23ZM81.7856 631.584V599.305H53.0486V631.584H81.7856ZM52.0486 631.584V599.305H21.8928V631.584H52.0486ZM20.8928 631.584V599.305H-8.55536L-8.55537 631.584H20.8928ZM-9.55537 631.584L-9.55536 599.305H-39L-39 631.584H-9.55537ZM-9.55536 598.305H-39L-39 566.734H-9.55536L-9.55536 598.305ZM20.8928 598.305H-8.55536L-8.55536 566.734H20.8928V598.305ZM52.0486 598.305H21.8928V566.734H52.0486V598.305ZM81.7856 598.305H53.0486V566.734H81.7856V598.305ZM112.23 598.305H82.7856V566.734H112.23V598.305ZM143.386 598.305H113.23V566.734H143.386V598.305ZM173.831 598.305H144.386V566.734H173.831V598.305ZM204.279 598.305H174.831V566.734H204.279V598.305ZM234.723 598.305H205.279V566.734H234.723V598.305ZM265.172 598.305H235.723V566.734H265.172V598.305ZM295.616 598.305H266.172V566.734H295.616V598.305ZM326.064 598.305H296.616V566.734H326.064V598.305ZM356.509 598.305H327.064V566.734H356.509V598.305ZM387.665 598.305H357.509V566.734H387.665V598.305ZM416.694 598.305H388.665V566.734H416.694V598.305ZM447.142 598.305H417.694V566.734H447.142V598.305ZM478.295 598.305H448.142V566.734H478.295V598.305ZM508.032 598.305H479.295V566.734H508.032V598.305ZM538.48 598.305H509.032V566.734H538.48V598.305ZM569.632 598.305H539.48V566.734H569.632V598.305ZM600.08 598.305H570.632V566.734H600.08V598.305ZM630.528 598.305H601.08V566.734H630.528V598.305ZM660.973 598.305H631.528V566.734H660.973V598.305ZM691.418 598.305H661.973V566.734H691.418V598.305ZM721.866 598.305H692.418V566.734H721.866V598.305ZM752.31 598.305H722.866V566.734H752.31V598.305ZM782.759 598.305H753.31V566.734H782.759V598.305ZM813.911 598.305H783.759V566.734H813.911V598.305ZM842.944 598.305H814.911V566.734H842.944V598.305ZM873.388 598.305H843.944V566.734H873.388V598.305ZM904.544 598.305H874.388V566.734H904.544V598.305ZM934.281 598.305H905.544V566.734H934.281V598.305ZM964.726 598.305H935.281V566.734H964.726V598.305ZM995.882 598.305H965.726V566.734H995.882V598.305ZM1026.33 598.305H996.882V566.734H1026.33V598.305ZM1056.77 598.305H1027.33V566.734H1056.77V598.305ZM1087.22 598.305H1057.77V566.734H1087.22V598.305ZM1117.67 598.305H1088.22V566.734H1117.67V598.305ZM1148.12 598.305H1118.67V566.734H1148.12V598.305ZM1178.56 598.305H1149.12V566.734H1178.56V598.305ZM1209 598.305H1179.56V566.734H1209V598.305ZM1240.16 598.305H1210V566.734H1240.16V598.305ZM1269.19 598.305H1241.16V566.734H1269.19V598.305ZM1299.63 598.305H1270.19V566.734H1299.63V598.305ZM1330.79 598.305H1300.63V566.734H1330.79V598.305ZM1360.53 598.305H1331.79V566.734H1360.53V598.305ZM1390.98 598.305H1361.53V566.734H1390.98V598.305ZM1422.13 598.305H1391.98V566.734H1422.13V598.305ZM1452.58 598.305H1423.13V566.734H1452.58V598.305ZM1483.02 598.305H1453.58V566.734H1483.02V598.305ZM1513.47 598.305H1484.02V566.734H1513.47V598.305ZM1543.92 598.305H1514.47V566.734H1543.92V598.305ZM1574.36 598.305H1544.92V566.734H1574.36V598.305ZM1574.36 565.734V533.456H1544.92V565.734H1574.36ZM1543.92 565.734V533.456H1514.47V565.734H1543.92ZM1513.47 565.734V533.456H1484.02V565.734H1513.47ZM1483.02 565.734V533.456H1453.58V565.734H1483.02ZM1452.58 565.734V533.456H1423.13V565.734H1452.58ZM1422.13 565.734V533.456H1391.98V565.734H1422.13ZM1390.98 565.734V533.456H1361.53V565.734H1390.98ZM1360.53 565.734V533.456H1331.79V565.734H1360.53ZM1330.79 565.734V533.456H1300.63V565.734H1330.79ZM1299.63 565.734V533.456H1270.19V565.734H1299.63ZM1269.19 565.734V533.456H1241.16V565.734H1269.19ZM1240.16 565.734V533.456H1210V565.734H1240.16ZM1209 565.734V533.456H1179.56V565.734H1209ZM1178.56 565.734V533.456H1149.12V565.734H1178.56ZM1148.12 565.734V533.456H1118.67V565.734H1148.12ZM1117.67 565.734V533.456H1088.22V565.734H1117.67ZM1087.22 565.734V533.456H1057.77V565.734H1087.22ZM1056.77 565.734V533.456H1027.33V565.734H1056.77ZM1026.33 565.734V533.456H996.882V565.734H1026.33ZM995.882 565.734V533.456H965.726V565.734H995.882ZM964.726 565.734V533.456H935.281V565.734H964.726ZM934.281 565.734V533.456H905.544V565.734H934.281ZM904.544 565.734V533.456H874.388V565.734H904.544ZM873.388 565.734V533.456H843.944V565.734H873.388ZM842.944 565.734V533.456H814.911V565.734H842.944ZM813.911 565.734V533.456H783.759V565.734H813.911ZM782.759 565.734V533.456H753.31V565.734H782.759ZM752.31 565.734V533.456H722.866V565.734H752.31ZM721.866 565.734V533.456H692.418V565.734H721.866ZM691.418 565.734V533.456H661.973V565.734H691.418ZM660.973 565.734V533.456H631.528V565.734H660.973ZM630.528 565.734V533.456H601.08V565.734H630.528ZM600.08 565.734V533.456H570.632V565.734H600.08ZM569.632 565.734V533.456H539.48V565.734H569.632ZM538.48 565.734V533.456H509.032V565.734H538.48ZM508.032 565.734V533.456H479.295V565.734H508.032ZM478.295 565.734V533.456H448.142V565.734H478.295ZM447.142 565.734V533.456H417.694V565.734H447.142ZM416.694 565.734V533.456H388.665V565.734H416.694ZM387.665 565.734V533.456H357.509V565.734H387.665ZM356.509 565.734V533.456H327.064V565.734H356.509ZM326.064 565.734V533.456H296.616V565.734H326.064ZM295.616 565.734V533.456H266.172V565.734H295.616ZM265.172 565.734V533.456H235.723V565.734H265.172ZM234.723 565.734V533.456H205.279V565.734H234.723ZM204.279 565.734V533.456H174.831V565.734H204.279ZM173.831 565.734V533.456H144.386V565.734H173.831ZM143.386 565.734V533.456H113.23V565.734H143.386ZM112.23 565.734V533.456H82.7856V565.734H112.23ZM81.7856 565.734V533.456H53.0486V565.734H81.7856ZM52.0486 565.734V533.456H21.8928V565.734H52.0486ZM20.8928 565.734V533.456H-8.55536L-8.55536 565.734H20.8928ZM-9.55536 565.734L-9.55536 533.456H-39L-39 565.734H-9.55536ZM-9.55536 532.456H-39L-39 500.177H-9.55536L-9.55536 532.456ZM20.8928 532.456H-8.55536L-8.55536 500.177H20.8928V532.456ZM52.0486 532.456H21.8928V500.177H52.0486V532.456ZM81.7856 532.456H53.0486V500.177L81.7856 500.177V532.456ZM112.23 532.456H82.7856V500.177H112.23V532.456ZM143.386 532.456H113.23V500.177H143.386V532.456ZM173.831 532.456H144.386V500.177H173.831V532.456ZM204.279 532.456H174.831V500.177H204.279V532.456ZM234.723 532.456H205.279V500.177H234.723V532.456ZM265.172 532.456H235.723V500.177H265.172V532.456ZM295.616 532.456H266.172V500.177H295.616V532.456ZM326.064 532.456H296.616V500.177H326.064V532.456ZM356.509 532.456H327.064V500.177H356.509V532.456ZM387.665 532.456H357.509V500.177H387.665V532.456ZM416.694 532.456H388.665V500.177H416.694V532.456ZM447.142 532.456H417.694V500.177H447.142V532.456ZM478.295 532.456H448.142V500.177H478.295V532.456ZM508.032 532.456H479.295V500.177H508.032V532.456ZM538.48 532.456H509.032V500.177H538.48V532.456ZM569.632 532.456H539.48V500.177H569.632V532.456ZM600.08 532.456H570.632V500.177H600.08V532.456ZM630.528 532.456H601.08V500.177H630.528V532.456ZM660.973 532.456H631.528V500.177H660.973V532.456ZM691.418 532.456H661.973V500.177H691.418V532.456ZM721.866 532.456H692.418V500.177H721.866V532.456ZM752.31 532.456H722.866V500.177H752.31V532.456ZM782.759 532.456H753.31V500.177H782.759V532.456ZM813.911 532.456H783.759V500.177H813.911V532.456ZM842.944 532.456H814.911V500.177H842.944V532.456ZM873.388 532.456H843.944V500.177H873.388V532.456ZM904.544 532.456H874.388V500.177H904.544V532.456ZM934.281 532.456H905.544V500.177H934.281V532.456ZM964.726 532.456H935.281V500.177H964.726V532.456ZM995.882 532.456H965.726V500.177H995.882V532.456ZM1026.33 532.456H996.882V500.177H1026.33V532.456ZM1056.77 532.456H1027.33V500.177H1056.77V532.456ZM1087.22 532.456H1057.77V500.177H1087.22V532.456ZM1117.67 532.456H1088.22V500.177H1117.67V532.456ZM1148.12 532.456H1118.67V500.177H1148.12V532.456ZM1178.56 532.456H1149.12V500.177H1178.56V532.456ZM1209 532.456H1179.56V500.177H1209V532.456ZM1240.16 532.456H1210V500.177H1240.16V532.456ZM1269.19 532.456H1241.16V500.177H1269.19V532.456ZM1299.63 532.456H1270.19V500.177H1299.63V532.456ZM1330.79 532.456H1300.63V500.177H1330.79V532.456ZM1360.53 532.456H1331.79V500.177H1360.53V532.456ZM1390.98 532.456H1361.53V500.177H1390.98V532.456ZM1422.13 532.456H1391.98V500.177H1422.13V532.456ZM1452.58 532.456H1423.13V500.177H1452.58V532.456ZM1483.02 532.456H1453.58V500.177H1483.02V532.456ZM1513.47 532.456H1484.02V500.177L1513.47 500.177V532.456ZM1543.92 532.456H1514.47V500.177H1543.92V532.456ZM1574.36 532.456H1544.92V500.177H1574.36V532.456Z" fill="url(#paint0_linear_1_2213)" fill-opacity="0.31"/>
<defs>
<linearGradient id="paint0_linear_1_2213" x1="346.89" y1="42.7873" x2="538.072" y2="440.157" gradientUnits="userSpaceOnUse">
<stop stop-color="#ffffff"/>
<stop offset="1" stop-color="#ffffff" stop-opacity="0"/>
</linearGradient>
</defs>
</svg>
