<svg width="54" height="54" viewBox="0 0 54 54" fill="none" xmlns="http://www.w3.org/2000/svg">
<path d="M13.4766 29.25V20.25H31.4469V29.25" stroke="white" stroke-width="2" stroke-linecap="round" stroke-linejoin="round"/>
<path d="M31.4467 20.25H33.693V11.25H15.7227V20.25" stroke="white" stroke-width="2" stroke-linecap="round" stroke-linejoin="round"/>
<path d="M40.0498 31.8862C41.3063 33.1449 42.162 34.7485 42.5087 36.4944C42.8553 38.2402 42.6774 40.0498 41.9973 41.6943C41.3172 43.3388 40.1656 44.7443 38.688 45.7333C37.2104 46.7222 35.4732 47.25 33.6961 47.25C31.919 47.25 30.1819 46.7222 28.7043 45.7333C27.2267 44.7443 26.075 43.3388 25.3949 41.6943C24.7149 40.0498 24.5369 38.2402 24.8836 36.4944C25.2302 34.7485 26.0859 33.1449 27.3425 31.8862C28.1768 31.0504 29.1674 30.3875 30.2575 29.9351C31.3477 29.4828 32.5161 29.25 33.6961 29.25C34.8761 29.25 36.0445 29.4828 37.1347 29.9351C38.2249 30.3875 39.2154 31.0504 40.0498 31.8862Z" stroke="white" stroke-width="2" stroke-linecap="round" stroke-linejoin="round"/>
<path d="M13.4766 38.25V47.25H33.6932" stroke="white" stroke-width="2" stroke-linecap="round" stroke-linejoin="round"/>
<path d="M33.6934 29.25H11.2305V38.25H24.7082" stroke="white" stroke-width="2" stroke-linecap="round" stroke-linejoin="round"/>
</svg>
