<svg width="54" height="54" viewBox="0 0 54 54" fill="none" xmlns="http://www.w3.org/2000/svg">
<path d="M32.3452 20.0562H34.6557V13.8848H16.1719V20.0562" fill="#B3C9BE"/>
<path d="M30.1322 29.314H32.3464V22.3711H14.6328V29.314" fill="#B3C9BE"/>
<path d="M23.0069 38.5718H24.6435V31.6289H11.5508V38.5718" fill="#B3C9BE"/>
<path d="M26.0889 49.3724H27.7255V40.8867H14.6328V49.3724" fill="#B3C9BE"/>
<path d="M13.4766 29.25V20.25H31.4469V29.25" stroke="black" stroke-width="2" stroke-linecap="round" stroke-linejoin="round"/>
<path d="M31.4467 20.25H33.693V11.25H15.7227V20.25" stroke="black" stroke-width="2" stroke-linecap="round" stroke-linejoin="round"/>
<path d="M41.5888 34.2007C42.8454 35.4593 43.7011 37.063 44.0477 38.8088C44.3944 40.5546 44.2164 42.3642 43.5364 44.0087C42.8563 45.6532 41.7046 47.0588 40.227 48.0477C38.7494 49.0366 37.0123 49.5645 35.2352 49.5645C33.4581 49.5645 31.7209 49.0366 30.2433 48.0477C28.7657 47.0588 27.6141 45.6532 26.934 44.0087C26.2539 42.3642 26.076 40.5546 26.4226 38.8088C26.7693 37.063 27.625 35.4593 28.8815 34.2007C29.7159 33.3649 30.7064 32.7019 31.7966 32.2496C32.8868 31.7973 34.0552 31.5645 35.2352 31.5645C36.4152 31.5645 37.5836 31.7973 38.6738 32.2496C39.7639 32.7019 40.7545 33.3649 41.5888 34.2007Z" fill="#E99172"/>
<path d="M40.0498 31.8862C41.3063 33.1449 42.162 34.7485 42.5087 36.4944C42.8553 38.2402 42.6774 40.0498 41.9973 41.6943C41.3172 43.3388 40.1656 44.7443 38.688 45.7333C37.2104 46.7222 35.4732 47.25 33.6961 47.25C31.919 47.25 30.1819 46.7222 28.7043 45.7333C27.2267 44.7443 26.075 43.3388 25.3949 41.6943C24.7149 40.0498 24.5369 38.2402 24.8836 36.4944C25.2302 34.7485 26.0859 33.1449 27.3425 31.8862C28.1768 31.0504 29.1674 30.3875 30.2575 29.9351C31.3477 29.4828 32.5161 29.25 33.6961 29.25C34.8761 29.25 36.0445 29.4828 37.1347 29.9351C38.2249 30.3875 39.2154 31.0504 40.0498 31.8862Z" stroke="black" stroke-width="2" stroke-linecap="round" stroke-linejoin="round"/>
<path d="M13.4766 38.25V47.25H33.6932" stroke="black" stroke-width="2" stroke-linecap="round" stroke-linejoin="round"/>
<path d="M33.6934 29.25H11.2305V38.25H24.7082" stroke="black" stroke-width="2" stroke-linecap="round" stroke-linejoin="round"/>
</svg>
