<svg width="66" height="66" viewBox="0 0 66 66" fill="none" xmlns="http://www.w3.org/2000/svg">
<rect x="0.113281" y="0.782227" width="64.9351" height="64.9351" rx="32.4675" fill="#373737"/>
<path d="M31.0801 24.9441C29.2083 25.456 28.0801 26.8923 28.0801 28.2492C28.0801 29.6062 29.2083 31.0424 31.0801 31.5542V24.9441Z" fill="#F0B25A"/>
<path d="M34.0801 34.9449V41.5549C35.9519 41.0431 37.0801 39.6069 37.0801 38.2499C37.0801 36.8929 35.9519 35.4567 34.0801 34.9449Z" fill="#F0B25A"/>
<path fill-rule="evenodd" clip-rule="evenodd" d="M52.5811 33.25C52.5811 44.2956 43.6267 53.25 32.5811 53.25C21.5354 53.25 12.5811 44.2956 12.5811 33.25C12.5811 22.2043 21.5354 13.25 32.5811 13.25C43.6267 13.25 52.5811 22.2043 52.5811 33.25ZM32.5811 19.75C33.4095 19.75 34.0811 20.4216 34.0811 21.25V21.8835C37.3419 22.4673 40.0811 24.9172 40.0811 28.25C40.0811 29.0784 39.4095 29.75 38.5811 29.75C37.7527 29.75 37.0811 29.0784 37.0811 28.25C37.0811 26.8931 35.9529 25.4568 34.0811 24.945V31.8834C37.3419 32.4674 40.0811 34.9172 40.0811 38.25C40.0811 41.5828 37.3419 44.0326 34.0811 44.6166V45.25C34.0811 46.0784 33.4095 46.75 32.5811 46.75C31.7527 46.75 31.0811 46.0784 31.0811 45.25V44.6166C27.8202 44.0326 25.0811 41.5828 25.0811 38.25C25.0811 37.4216 25.7526 36.75 26.5811 36.75C27.4095 36.75 28.0811 37.4216 28.0811 38.25C28.0811 39.607 29.2093 41.0432 31.0811 41.555V34.6166C27.8202 34.0326 25.0811 31.5828 25.0811 28.25C25.0811 24.9172 27.8202 22.4673 31.0811 21.8835V21.25C31.0811 20.4216 31.7527 19.75 32.5811 19.75Z" fill="#F0B25A"/>
</svg>
