<svg width="165" height="59" viewBox="0 0 165 59" fill="none" xmlns="http://www.w3.org/2000/svg">
<path d="M2 53.073L6.70632 56.5424C7.00371 56.7616 7.3963 56.9183 7.72079 56.7417V56.7417C7.90955 56.6389 8.01007 56.4485 8.0897 56.2489L10.1282 51.1379C10.5387 50.1087 11.4305 48.7903 12.2784 49.5036V49.5036L19.1107 55.2527C19.3027 55.4143 19.5632 55.5051 19.8348 55.5051H27.0257C27.2423 55.5051 27.4532 55.4474 27.6282 55.3403L30.58 53.5339C31.0069 53.2726 31.5999 53.3272 31.9495 53.6599L35.1525 56.7091C35.5164 57.0554 36.1405 57.0984 36.5664 56.8064L47.4604 49.3397C47.8864 49.0477 48.5107 49.0906 48.8743 49.437L51.8651 52.284C52.2933 52.6916 53.0587 52.6672 53.4488 52.2331L57.948 47.2269C58.0845 47.0752 58.2769 46.9658 58.495 46.9157L65.5841 45.2888C65.911 45.2138 66.1726 45.0077 66.2826 44.7383L69.4253 37.0451C69.5257 36.7994 69.7529 36.6051 70.0432 36.5161L75.1689 34.9479C75.4109 34.8739 75.6108 34.7258 75.7285 34.5334L77.6521 31.3944C78.0261 30.7842 79.0577 30.7698 79.4557 31.3691L84.5437 39.0338C84.7951 39.4125 85.3428 39.5748 85.8212 39.4122L93.4672 36.8125C93.7567 36.7141 93.9771 36.5098 94.0651 36.258L99.6115 20.4187C99.7656 19.9784 100.304 19.7174 100.835 19.8257L105.1 20.6959C105.543 20.7862 106.004 20.6197 106.23 20.2872L110.248 14.3854C110.551 13.9408 111.246 13.8157 111.739 14.1173L113.824 15.3935C114.332 15.704 115.049 15.561 115.337 15.092L115.558 14.7309C115.897 14.177 116.803 14.1007 117.266 14.5869L122.023 19.5771C122.537 20.1166 123.561 19.9517 123.801 19.2904L128.856 5.37009C129.036 4.87309 129.696 4.62305 130.258 4.83827L136.496 7.22403C136.885 7.37312 137.345 7.30244 137.646 7.04687L143.302 2.25441C143.494 2.09158 143.756 2 144.029 2H152.267C152.725 2 153.127 2.25572 153.252 2.62611L155.926 10.5758C156.162 11.2765 157.262 11.4294 157.753 10.8299L163 4.43205" stroke="#E99172" stroke-width="3" stroke-linecap="round"/>
</svg>
