<svg width="40" height="40" viewBox="0 0 40 40" fill="none" xmlns="http://www.w3.org/2000/svg">
<path d="M19.9983 32.0833C19.6533 32.0833 19.3733 32.3633 19.3767 32.7083C19.375 33.0533 19.655 33.3333 20 33.3333C20.345 33.3333 20.625 33.0533 20.625 32.7083C20.625 32.3633 20.345 32.0833 19.9983 32.0833" stroke="white" stroke-width="2.5" stroke-linecap="round" stroke-linejoin="round"/>
<path d="M10 33.3333L31.6667 5" stroke="white" stroke-width="2.5" stroke-linecap="round" stroke-linejoin="round"/>
<path d="M23.5267 15.6451C17.9683 14.5984 11.965 16.0451 7.65167 20.0001" stroke="white" stroke-width="2.5" stroke-linecap="round" stroke-linejoin="round"/>
<path d="M29.19 8.24007C20.34 5.08841 9.83001 6.67674 2.65668 13.0067" stroke="white" stroke-width="2.5" stroke-linecap="round" stroke-linejoin="round"/>
<path d="M28.7783 17.4951C30.0533 18.1701 31.2567 18.9985 32.3467 20.0001" stroke="white" stroke-width="2.5" stroke-linecap="round" stroke-linejoin="round"/>
<path d="M34.035 10.6201C35.19 11.3285 36.3116 12.0985 37.3433 13.0068" stroke="white" stroke-width="2.5" stroke-linecap="round" stroke-linejoin="round"/>
<path d="M23.77 24.0449C25.08 24.5466 26.31 25.3183 27.3667 26.3683" stroke="white" stroke-width="2.5" stroke-linecap="round" stroke-linejoin="round"/>
</svg>
