<svg width="66" height="66" viewBox="0 0 66 66" fill="none" xmlns="http://www.w3.org/2000/svg">
<rect x="0.830078" y="0.75" width="65" height="65" rx="32.5" fill="#373737"/>
<path fill-rule="evenodd" clip-rule="evenodd" d="M33.3305 12.9765C38.7074 12.9765 43.8641 15.1125 47.6662 18.9145C51.4683 22.7166 53.6043 27.8733 53.6043 33.2503C53.6043 44.4472 44.5274 53.5241 33.3305 53.5241C22.1335 53.5241 13.0566 44.4472 13.0566 33.2503C13.0566 22.0534 22.1335 12.9765 33.3305 12.9765ZM35.3579 35.2777H31.3031C26.2839 35.2777 21.9747 38.3175 20.1162 42.6569C23.0569 46.7805 27.8797 49.4694 33.3305 49.4694C38.7812 49.4694 43.604 46.7805 46.5447 42.6566C44.6862 38.3175 40.377 35.2777 35.3579 35.2777ZM33.3305 19.0586C29.9714 19.0586 27.2483 21.7817 27.2483 25.1408C27.2483 28.4998 29.9714 31.2229 33.3305 31.2229C36.6895 31.2229 39.4126 28.4998 39.4126 25.1408C39.4126 21.7817 36.6895 19.0586 33.3305 19.0586Z" fill="#F0B25A"/>
</svg>
