<svg width="66" height="66" viewBox="0 0 66 66" fill="none" xmlns="http://www.w3.org/2000/svg">
<rect x="0.273438" y="0.75" width="65" height="65" rx="32.5" fill="#373737"/>
<path d="M53.2596 33.2503C53.2596 37.3022 52.0581 41.2632 49.8069 44.6324C47.5558 48.0015 44.3561 50.6274 40.6125 52.178C36.869 53.7286 32.7497 54.1343 28.7755 53.3438C24.8014 52.5533 21.1509 50.6021 18.2857 47.7369C15.4205 44.8717 13.4693 41.2213 12.6788 37.2471C11.8883 33.273 12.294 29.1537 13.8447 25.4101C15.3953 21.6666 18.0212 18.4669 21.3903 16.2157C24.7594 13.9646 28.7204 12.763 32.7724 12.763C38.206 12.763 43.417 14.9215 47.2591 18.7636C51.1012 22.6057 53.2596 27.8167 53.2596 33.2503ZM45.6538 33.2656C45.6538 30.7179 44.8983 28.2275 43.4829 26.1091C42.0674 23.9908 40.0556 22.3398 37.7019 21.3648C35.3481 20.3898 32.7581 20.1347 30.2594 20.6318C27.7606 21.1288 25.4654 22.3556 23.6639 24.1571C21.8624 25.9586 20.6356 28.2539 20.1386 30.7526C19.6415 33.2513 19.8966 35.8413 20.8716 38.1951C21.8465 40.5489 23.4976 42.5606 25.6159 43.9761C27.7342 45.3915 30.2247 46.147 32.7724 46.147C34.464 46.147 36.139 45.8138 37.7019 45.1664C39.2647 44.5191 40.6848 43.5703 41.8809 42.3741C43.077 41.178 44.0259 39.7579 44.6732 38.1951C45.3206 36.6323 45.6538 34.9572 45.6538 33.2656ZM26.7466 32.2413H21.9884C22.1746 30.2948 22.8833 28.4348 24.0395 26.8579C25.1958 25.2811 26.7567 24.046 28.5572 23.2832C28.7279 23.2115 28.8986 23.1441 29.0693 23.0809C27.5642 25.901 26.7671 29.0447 26.7466 32.2413ZM26.7466 34.29C26.7677 37.4868 27.5657 40.6305 29.0719 43.4503C28.8978 43.3872 28.7262 43.3197 28.5572 43.248C26.7548 42.4881 25.1921 41.2537 24.0354 39.6763C22.8788 38.0989 22.1713 36.2375 21.9884 34.29H26.7466ZM28.7953 32.2413C28.8407 31.0354 28.9802 29.835 29.2127 28.6509C29.4454 27.4015 29.828 26.1848 30.3523 25.0272C31.0924 23.4522 32.0425 22.433 32.7724 22.433C33.5023 22.433 34.4524 23.4522 35.1925 25.0272C35.7164 26.1849 36.0991 27.4016 36.3321 28.6509C36.5642 29.835 36.7037 31.0354 36.7495 32.2413H28.7953ZM36.7495 34.29C36.7038 35.4958 36.5642 36.6962 36.3321 37.8804C36.0989 39.1296 35.7163 40.3462 35.1925 41.504C34.4524 43.0816 33.5023 44.0982 32.7724 44.0982C32.0425 44.0982 31.0924 43.0816 30.3523 41.504C29.8282 40.3464 29.4456 39.1297 29.2127 37.8804C28.9802 36.6963 28.8406 35.4958 28.7953 34.29H36.7495ZM40.4321 25.606C42.2167 27.3848 43.3221 29.7324 43.5564 32.2413H38.7982C38.7773 29.0444 37.9793 25.9006 36.4729 23.0809C36.6471 23.1441 36.8186 23.2124 36.9877 23.2858C38.2754 23.8285 39.4452 24.6165 40.4321 25.606ZM38.7982 34.29H43.5564C43.37 36.2364 42.6612 38.0963 41.5049 39.6731C40.3487 41.2499 38.788 42.4851 36.9877 43.248C36.8169 43.3214 36.6462 43.3897 36.4755 43.4529C37.9815 40.6322 38.7786 37.4875 38.7982 34.29Z" fill="#F0B25A"/>
</svg>
