<svg width="25" height="25" viewBox="0 0 25 25" fill="none" xmlns="http://www.w3.org/2000/svg">
<path d="M22.9771 22.4809L20.3477 12.1952C20.299 12.0047 20.1767 11.8343 20.001 11.7121C19.8252 11.5899 19.6066 11.5233 19.3811 11.5232H8.61989C8.39447 11.5233 8.17582 11.5899 8.00007 11.7121C7.82432 11.8343 7.702 12.0047 7.6533 12.1952L5.0239 22.4809C4.99189 22.6062 4.99276 22.736 5.02644 22.8609C5.06013 22.9858 5.12577 23.1026 5.21853 23.2026C5.31129 23.3026 5.4288 23.3833 5.56241 23.4388C5.69601 23.4943 5.8423 23.5232 5.99049 23.5232H22.0105C22.1587 23.5232 22.305 23.4943 22.4386 23.4388C22.5722 23.3833 22.6897 23.3026 22.7825 23.2026C22.8753 23.1026 22.9409 22.9858 22.9746 22.8609C23.0083 22.736 23.0091 22.6062 22.9771 22.4809Z" fill="#5E7079" fill-opacity="0.2"/>
<path d="M21.2105 20.3072L18.5555 8.30721C18.5063 8.08496 18.3828 7.88614 18.2053 7.74359C18.0279 7.60104 17.8071 7.5233 17.5795 7.52321H6.71347C6.48585 7.5233 6.26507 7.60104 6.08762 7.74359C5.91016 7.88614 5.78664 8.08496 5.73748 8.30721L3.08248 20.3072C3.05015 20.4533 3.05103 20.6048 3.08505 20.7505C3.11906 20.8962 3.18534 21.0325 3.279 21.1492C3.37266 21.2658 3.49132 21.36 3.62622 21.4248C3.76113 21.4895 3.90884 21.5231 4.05847 21.5232H20.2345C20.3841 21.5231 20.5318 21.4895 20.6667 21.4248C20.8016 21.36 20.9203 21.2658 21.0139 21.1492C21.1076 21.0325 21.1739 20.8962 21.2079 20.7505C21.2419 20.6048 21.2428 20.4533 21.2105 20.3072Z" stroke="#3B4D56" stroke-width="1.5" stroke-linecap="round" stroke-linejoin="round"/>
<path d="M14.6465 7.52321V5.02321C14.6465 4.36017 14.3831 3.72428 13.9143 3.25544C13.4454 2.7866 12.8095 2.52321 12.1465 2.52321V2.52321C11.4834 2.52321 10.8476 2.7866 10.3787 3.25544C9.90988 3.72428 9.64648 4.36017 9.64648 5.02321V5.02321V7.52321" stroke="#3B4D56" stroke-width="1.5" stroke-linecap="round" stroke-linejoin="round"/>
<path d="M18.3065 7.8632L15.2865 21.5232" stroke="#3B4D56" stroke-width="1.5" stroke-linecap="round" stroke-linejoin="round"/>
</svg>
