<svg width="25" height="18" viewBox="0 0 25 18" fill="none" xmlns="http://www.w3.org/2000/svg">
<path d="M11.6441 14.7698C11.7364 14.77 11.8278 14.7883 11.9131 14.8237C11.9983 14.8592 12.0757 14.9111 12.1409 14.9764C12.2061 15.0418 12.2578 15.1194 12.293 15.2047C12.3282 15.2901 12.3462 15.3815 12.3461 15.4738C12.346 15.5661 12.3277 15.6575 12.2922 15.7428C12.2568 15.828 12.2049 15.9054 12.1395 15.9706C12.0741 16.0358 11.9966 16.0875 11.9112 16.1227C11.8259 16.1579 11.7344 16.176 11.6421 16.1758C11.4557 16.1756 11.277 16.1012 11.1453 15.9692C11.0137 15.8372 10.9398 15.6583 10.9401 15.4718C10.9404 15.2854 11.0147 15.1067 11.1467 14.975C11.2788 14.8434 11.4577 14.7696 11.6441 14.7698ZM22.6681 10.4228C22.5758 10.4228 22.4844 10.4045 22.3991 10.3691C22.3139 10.3337 22.2364 10.2819 22.1712 10.2166C22.1059 10.1512 22.0542 10.0737 22.0189 9.98838C21.9837 9.90307 21.9655 9.81164 21.9656 9.71932C21.9657 9.627 21.9839 9.5356 22.0193 9.45033C22.0547 9.36506 22.1065 9.2876 22.1719 9.22237C22.2372 9.15714 22.3147 9.10541 22.4 9.07014C22.4854 9.03487 22.5768 9.01675 22.6691 9.01682C22.8556 9.01695 23.0343 9.09114 23.1661 9.22308C23.2978 9.35501 23.3717 9.53387 23.3716 9.72032C23.3715 9.90677 23.2973 10.0855 23.1654 10.2173C23.0334 10.349 22.8546 10.423 22.6681 10.4228ZM22.6681 7.54682C22.0917 7.54735 21.539 7.77656 21.1314 8.18415C20.7239 8.59174 20.4946 9.1444 20.4941 9.72082C20.4941 9.95382 20.5331 10.1858 20.6091 10.4118L13.4281 14.2348C13.229 13.9457 12.9626 13.7093 12.6518 13.5461C12.341 13.3829 11.9952 13.2977 11.6441 13.2978C10.8151 13.2978 10.0601 13.7728 9.69411 14.5138L3.24311 11.1118C2.56111 10.7538 2.05111 9.63182 2.10511 8.60982C2.13311 8.07682 2.31711 7.66282 2.59811 7.50282C2.77611 7.40282 2.99011 7.41082 3.21811 7.52982L3.26011 7.55282C4.97011 8.45282 10.5641 11.3998 10.8001 11.5088C11.1631 11.6778 11.3651 11.7458 11.9851 11.4518L23.5491 5.43782C23.7191 5.37382 23.9171 5.21082 23.9171 4.96382C23.9171 4.62182 23.5631 4.48682 23.5621 4.48682C22.9041 4.17182 21.8931 3.69882 20.9071 3.23682C18.7991 2.24982 16.4101 1.13182 15.3611 0.58182C14.4551 0.10782 13.7261 0.50782 13.5961 0.58782L13.3441 0.71282C8.62211 3.04782 2.30211 6.17782 1.94211 6.39682C1.29911 6.78882 0.900114 7.56982 0.848114 8.53882C0.768114 10.0758 1.55111 11.6788 2.67211 12.2658L9.49411 15.7838C9.56926 16.3006 9.82784 16.7731 10.2226 17.1149C10.6173 17.4568 11.1219 17.6453 11.6441 17.6458C12.2144 17.6449 12.7616 17.4201 13.168 17.0199C13.5743 16.6197 13.8074 16.0761 13.8171 15.5058L21.3311 11.4328C21.7111 11.7308 22.1841 11.8938 22.6681 11.8938C23.2445 11.8933 23.7972 11.6641 24.2048 11.2565C24.6124 10.8489 24.8416 10.2962 24.8421 9.71982C24.8416 9.1434 24.6124 8.59074 24.2048 8.18315C23.7972 7.77556 23.2445 7.54635 22.6681 7.54582" fill="black"/>
</svg>
