<svg width="24" height="24" viewBox="0 0 24 24" fill="none" xmlns="http://www.w3.org/2000/svg">
<g clip-path="url(#clip0_292_472)">
<path d="M5.0322 11.3982C5.03222 11.2657 5.05842 11.1345 5.10929 11.0121C5.16016 10.8898 5.2347 10.7787 5.32863 10.6852C5.42258 10.5917 5.53403 10.5177 5.65665 10.4674C5.77926 10.4171 5.9106 10.3916 6.04313 10.3922L7.71922 10.3976C7.98644 10.3976 8.24274 10.5038 8.43169 10.6928C8.62067 10.8817 8.72683 11.138 8.72683 11.4053V17.7428C8.91552 17.6868 9.15786 17.6271 9.42303 17.5647C9.60722 17.5214 9.77138 17.4172 9.88888 17.2689C10.0064 17.1206 10.0703 16.9369 10.0702 16.7477V8.88623C10.0702 8.61897 10.1764 8.36266 10.3653 8.17367C10.5543 7.98467 10.8106 7.87849 11.0779 7.87843H12.7573C13.0245 7.87849 13.2808 7.98467 13.4698 8.17367C13.6587 8.36266 13.7649 8.61897 13.7649 8.88623V16.1824C13.7649 16.1824 14.1854 16.0123 14.5949 15.8394C14.7471 15.7751 14.8769 15.6673 14.9682 15.5297C15.0596 15.392 15.1083 15.2305 15.1085 15.0654V6.36721C15.1085 6.10001 15.2146 5.84373 15.4035 5.65478C15.5925 5.46582 15.8487 5.35966 16.1159 5.3596H17.7953C18.0626 5.3596 18.3188 5.46574 18.5078 5.65472C18.6968 5.84368 18.8029 6.09997 18.8029 6.36721V13.5299C20.2589 12.4747 21.7344 11.2056 22.9054 9.6796C23.0753 9.45809 23.1877 9.19798 23.2326 8.92249C23.2775 8.64699 23.2535 8.36465 23.1627 8.10067C22.6207 6.54122 21.7592 5.11207 20.6332 3.90469C19.5071 2.69733 18.1414 1.73832 16.6235 1.08905C15.1056 0.439773 13.4688 0.114532 11.818 0.134137C10.1671 0.153742 8.53856 0.517763 7.03649 1.2029C5.5344 1.88804 4.19189 2.87921 3.09485 4.11298C1.99782 5.34674 1.17043 6.79595 0.665625 8.36785C0.160825 9.93973 -0.0102692 11.5997 0.163292 13.2415C0.336853 14.8833 0.851249 16.4708 1.67356 17.9024C1.81681 18.1494 2.02755 18.3503 2.28104 18.4817C2.53452 18.613 2.82022 18.6693 3.10459 18.6439C3.42225 18.616 3.81776 18.5764 4.288 18.5212C4.49271 18.4979 4.6817 18.4002 4.81897 18.2466C4.95626 18.0929 5.03222 17.8942 5.03239 17.6882L5.0322 11.3982Z" fill="black"/>
<path d="M4.99554 21.563C6.76575 22.8508 8.85775 23.6239 11.0401 23.7966C13.2224 23.9691 15.4099 23.5347 17.3606 22.5412C19.3113 21.5476 20.9491 20.0339 22.0929 18.1673C23.2365 16.3007 23.8416 14.1541 23.841 11.9649C23.841 11.6918 23.8283 11.4215 23.8102 11.1528C19.4747 17.6188 11.4699 20.6417 4.99592 21.5621" fill="#979695"/>
</g>
<defs>
<clipPath id="clip0_292_472">
<rect width="24" height="24" fill="white"/>
</clipPath>
</defs>
</svg>
