<svg width="25" height="25" viewBox="0 0 25 25" fill="none" xmlns="http://www.w3.org/2000/svg">
<path d="M17.243 13.2804C18.0821 14.1195 18.6536 15.1886 18.8852 16.3525C19.1167 17.5164 18.9979 18.7228 18.5438 19.8192C18.0897 20.9156 17.3207 21.8527 16.334 22.512C15.3472 23.1713 14.1872 23.5232 13.0005 23.5232C11.8138 23.5232 10.6537 23.1713 9.66703 22.512C8.68032 21.8527 7.91129 20.9156 7.45718 19.8192C7.00306 18.7228 6.88426 17.5164 7.11581 16.3525C7.34735 15.1886 7.91884 14.1195 8.75799 13.2804C9.8832 12.1553 11.4093 11.5232 13.0005 11.5232C14.5917 11.5232 16.1178 12.1553 17.243 13.2804Z" fill="#5E7079" fill-opacity="0.2"/>
<path d="M16.3895 11.2802C17.2286 12.1193 17.8001 13.1884 18.0317 14.3523C18.2632 15.5162 18.1444 16.7226 17.6903 17.819C17.2362 18.9154 16.4671 19.8525 15.4804 20.5118C14.4937 21.1711 13.3337 21.523 12.147 21.523C10.9603 21.523 9.80022 21.1711 8.81351 20.5118C7.82681 19.8525 7.05777 18.9154 6.60366 17.819C6.14955 16.7226 6.03075 15.5162 6.26229 14.3523C6.49384 13.1884 7.06532 12.1193 7.90448 11.2802C9.02968 10.1551 10.5557 9.52299 12.147 9.52299C13.7382 9.52299 15.2643 10.1551 16.3895 11.2802" stroke="#3B4D56" stroke-width="1.5" stroke-linecap="round" stroke-linejoin="round"/>
<path d="M11.1465 14.5232L12.1465 13.5232V17.5232" stroke="#3B4D56" stroke-width="1.5" stroke-linecap="round" stroke-linejoin="round"/>
<path d="M11.1465 17.5232H13.1465" stroke="#3B4D56" stroke-width="1.5" stroke-linecap="round" stroke-linejoin="round"/>
<path d="M16.6765 11.5962L20.4345 5.02321C20.5223 4.87105 20.5685 4.69842 20.5685 4.52272C20.5684 4.34701 20.522 4.17443 20.434 4.02235C20.346 3.87028 20.2195 3.74407 20.0672 3.65644C19.9149 3.56882 19.7422 3.52286 19.5665 3.52321H16.1555C15.9796 3.52286 15.8068 3.56891 15.6544 3.65669C15.502 3.74448 15.3754 3.8709 15.2875 4.02321L12.1465 9.52321" stroke="#3B4D56" stroke-width="1.5" stroke-linecap="round" stroke-linejoin="round"/>
<path d="M7.61649 11.5962L3.85849 5.02321C3.77064 4.87105 3.72443 4.69842 3.72452 4.52272C3.7246 4.34701 3.77098 4.17443 3.85899 4.02235C3.94699 3.87028 4.07351 3.74407 4.2258 3.65644C4.3781 3.56882 4.55079 3.52286 4.72649 3.52321H8.13749C8.31336 3.52286 8.48622 3.56891 8.63861 3.65669C8.79101 3.74448 8.91756 3.8709 9.00549 4.02321L12.1465 9.52321" stroke="#3B4D56" stroke-width="1.5" stroke-linecap="round" stroke-linejoin="round"/>
</svg>
