<svg width="21" height="24" viewBox="0 0 21 24" fill="none" xmlns="http://www.w3.org/2000/svg">
<g clip-path="url(#clip0_292_475)">
<path d="M8.17337 5.46112C7.91331 5.42397 7.90092 5.41158 8.02476 5.3992C8.26006 5.36205 8.80495 5.41158 9.18885 5.49827C10.0805 5.7088 10.8854 6.25369 11.7399 7.20725L11.9628 7.46731L12.2848 7.41777C13.6594 7.19486 15.0712 7.36824 16.2477 7.91313C16.5697 8.06174 17.0774 8.35895 17.1393 8.43325C17.1641 8.45802 17.2012 8.61901 17.226 8.78C17.3127 9.36205 17.2755 9.79548 17.0898 10.1298C16.9907 10.3156 16.9907 10.3651 17.0526 10.5261C17.1022 10.65 17.2508 10.7367 17.387 10.7367C17.6842 10.7367 17.9938 10.2661 18.1424 9.60972L18.2043 9.34966L18.3158 9.4735C18.9474 10.1794 19.4427 11.1577 19.517 11.8512L19.5418 12.037L19.4303 11.876C19.2446 11.5911 19.0712 11.4054 18.8359 11.2444C18.4149 10.9596 17.969 10.8729 16.7926 10.811C15.7275 10.749 15.1207 10.6624 14.5263 10.4642C13.5108 10.1298 12.9907 9.69641 11.7895 8.09889C11.257 7.39301 10.9226 7.00911 10.5882 6.68712C9.85758 5.98124 9.12693 5.60973 8.17337 5.46112Z" fill="black"/>
<path d="M17.3994 7.03384C17.4242 6.56325 17.4861 6.25366 17.6223 5.96883C17.6718 5.85737 17.7214 5.7583 17.7337 5.7583C17.7461 5.7583 17.7214 5.84499 17.6842 5.94406C17.5851 6.21651 17.5728 6.60041 17.6347 7.03384C17.7214 7.59112 17.7585 7.66542 18.3529 8.27223C18.6254 8.55706 18.9474 8.9162 19.0712 9.0648L19.2817 9.33725L19.0712 9.13911C18.8111 8.89143 18.2167 8.42084 18.0805 8.35892C17.9938 8.30938 17.9814 8.30938 17.9195 8.3713C17.87 8.42084 17.8576 8.49514 17.8576 8.85428C17.8452 9.41155 17.7709 9.7583 17.5851 10.1174C17.4861 10.3032 17.4737 10.266 17.5604 10.0555C17.6223 9.89452 17.6347 9.82022 17.6347 9.28771C17.6347 8.21031 17.5108 7.95025 16.7554 7.51681C16.5697 7.40536 16.2477 7.24437 16.0619 7.15768C15.8638 7.07099 15.7152 6.99669 15.7276 6.99669C15.7523 6.97192 16.483 7.18245 16.7678 7.30629C17.2012 7.47966 17.2755 7.49205 17.3251 7.47966C17.3622 7.44251 17.387 7.34344 17.3994 7.03384Z" fill="black"/>
<path d="M8.68112 8.87914C8.16099 8.16088 7.82663 7.04633 7.90093 6.21661L7.9257 5.95654L8.04954 5.98131C8.27245 6.01846 8.65635 6.16707 8.84211 6.27852C9.33746 6.57574 9.56037 6.98441 9.7709 7.99989C9.83282 8.2971 9.91951 8.64385 9.95666 8.7553C10.0186 8.94106 10.2539 9.3745 10.452 9.64695C10.5882 9.84509 10.5016 9.94416 10.192 9.91939C9.72137 9.86986 9.08979 9.43642 8.68112 8.87914Z" fill="black"/>
<path d="M16.7678 14.2664C14.3158 13.2757 13.4489 12.4212 13.4489 10.9723C13.4489 10.7618 13.4613 10.5884 13.4613 10.5884C13.4737 10.5884 13.5604 10.6627 13.6718 10.7494C14.1672 11.1457 14.7245 11.319 16.2724 11.5419C17.1765 11.6782 17.6966 11.7772 18.1672 11.9382C19.6656 12.4336 20.5944 13.4491 20.8173 14.8237C20.8793 15.22 20.8421 15.9754 20.743 16.3717C20.6563 16.6813 20.4087 17.2509 20.3467 17.2633C20.3344 17.2633 20.3096 17.2014 20.3096 17.1023C20.2848 16.5822 20.0248 16.0868 19.5913 15.7029C19.0712 15.2571 18.4025 14.9227 16.7678 14.2664Z" fill="black"/>
<path d="M15.034 14.6751C15.0093 14.4894 14.9474 14.2541 14.9102 14.155L14.8483 13.9692L14.9597 14.1055C15.1207 14.2912 15.2446 14.5141 15.356 14.8237C15.4427 15.059 15.4427 15.1333 15.4427 15.5172C15.4427 15.8887 15.4303 15.9754 15.356 16.186C15.2322 16.5203 15.0836 16.7556 14.8359 17.0157C14.3901 17.4739 13.808 17.7216 12.9783 17.833C12.8297 17.8454 12.4087 17.8826 12.0371 17.9073C11.1083 17.9569 10.4892 18.0559 9.93187 18.2541C9.85757 18.2788 9.78327 18.3036 9.77088 18.2912C9.74612 18.2665 10.13 18.0435 10.4396 17.8949C10.8731 17.6844 11.3189 17.573 12.2972 17.3996C12.7802 17.3253 13.2755 17.2262 13.3994 17.1767C14.6254 16.7928 15.2322 15.8392 15.034 14.6751Z" fill="black"/>
<path d="M16.161 16.6686C15.839 15.9627 15.7647 15.294 15.9381 14.6624C15.9628 14.6005 15.9876 14.5386 16.0124 14.5386C16.0371 14.5386 16.1114 14.5757 16.1857 14.6253C16.3344 14.7243 16.644 14.8977 17.4365 15.3311C18.4396 15.876 19.0093 16.2971 19.4056 16.7801C19.7523 17.2011 19.9628 17.6841 20.0619 18.2785C20.1238 18.6129 20.0867 19.4178 20 19.7522C19.7275 20.8048 19.1083 21.6469 18.2043 22.1299C18.0681 22.2042 17.9566 22.2537 17.9443 22.2537C17.9319 22.2537 17.9814 22.1299 18.0557 21.9813C18.3529 21.3497 18.3901 20.7429 18.1672 20.0618C18.0309 19.6407 17.7461 19.133 17.1765 18.2785C16.4953 17.2878 16.3344 17.0277 16.161 16.6686Z" fill="black"/>
<path d="M6.93499 20.4582C7.8514 19.6904 8.97833 19.1455 10.0186 18.9722C10.4644 18.8979 11.2074 18.9226 11.6161 19.0341C12.2725 19.2075 12.8669 19.579 13.1765 20.0372C13.4737 20.483 13.6099 20.8669 13.7461 21.7214C13.7957 22.0558 13.8576 22.4025 13.87 22.4768C13.969 22.9226 14.1672 23.2694 14.4149 23.4551C14.7988 23.74 15.4675 23.7523 16.1238 23.5047C16.2353 23.4675 16.3344 23.4304 16.3344 23.4427C16.3591 23.4675 16.0248 23.6904 15.8019 23.8019C15.4923 23.9629 15.2446 24.0124 14.9102 24.0124C14.3158 24.0124 13.8081 23.7028 13.3994 23.0836C13.3127 22.9598 13.1393 22.6006 12.9907 22.2663C12.5573 21.2632 12.3344 20.966 11.8266 20.6316C11.3808 20.3468 10.8112 20.2849 10.3777 20.4954C9.80805 20.7678 9.65945 21.4985 10.0557 21.9443C10.2167 22.1301 10.5139 22.2787 10.7616 22.3158C11.2198 22.3777 11.6161 22.0186 11.6161 21.5604C11.6161 21.2632 11.5046 21.0898 11.2074 20.9536C10.8112 20.7802 10.3777 20.9784 10.3901 21.3623C10.3901 21.5232 10.4644 21.6223 10.6254 21.6966C10.7245 21.7462 10.7245 21.7462 10.6502 21.7338C10.291 21.6595 10.2043 21.2136 10.4892 20.9288C10.8359 20.5821 11.5666 20.7307 11.8142 21.2136C11.9133 21.4118 11.9257 21.8081 11.839 22.0558C11.6285 22.6006 11.0341 22.8855 10.4272 22.7245C10.0186 22.613 9.84521 22.5016 9.34985 21.9938C8.48298 21.1022 8.14861 20.9288 6.91022 20.7431L6.67493 20.7059L6.93499 20.4582Z" fill="black"/>
<path fill-rule="evenodd" clip-rule="evenodd" d="M0.420871 0.532508C3.30632 4.03715 7.75214 9.48607 7.97505 9.78328C8.16081 10.031 8.08651 10.2663 7.77691 10.4396C7.60353 10.5387 7.2444 10.6378 7.07103 10.6378C6.87288 10.6378 6.63759 10.5387 6.4766 10.3777C6.36514 10.2663 5.88217 9.56037 4.79239 7.86378C3.96267 6.56347 3.25678 5.48607 3.2444 5.47368C3.19487 5.44892 3.19487 5.44892 4.7057 8.14861C5.65926 9.8452 5.96886 10.452 5.96886 10.5263C5.96886 10.6873 5.91932 10.774 5.72118 10.9969C5.38682 11.3684 5.23821 11.7895 5.12675 12.6687C5.00291 13.6471 4.66855 14.3406 3.71499 15.517C3.15771 16.2105 3.07103 16.3344 2.9348 16.6192C2.76143 16.9659 2.71189 17.1641 2.68713 17.6099C2.66236 18.0805 2.71189 18.3777 2.84812 18.8235C2.97195 19.2198 3.10818 19.4799 3.44254 19.9876C3.72737 20.4334 3.90075 20.7678 3.90075 20.8916C3.90075 20.9907 3.92552 20.9907 4.37134 20.8916C5.43635 20.644 6.31561 20.2229 6.79858 19.7028C7.09579 19.3808 7.1701 19.2074 7.1701 18.7616C7.1701 18.4768 7.15771 18.4149 7.08341 18.2415C6.95957 17.969 6.72428 17.7461 6.21654 17.3994C5.54781 16.9412 5.26298 16.5697 5.18867 16.0743C5.12675 15.6533 5.20106 15.3684 5.57257 14.5882C5.95648 13.7833 6.05555 13.4489 6.11747 12.6316C6.15462 12.1115 6.21654 11.9009 6.36514 11.7399C6.52613 11.5666 6.66236 11.5046 7.04626 11.4551C7.67784 11.3684 8.08651 11.2074 8.40849 10.8978C8.69332 10.6378 8.81716 10.3777 8.82954 9.99381L8.84192 9.70898L8.68093 9.5356C8.09889 8.86687 0.0369701 0 -0.00018158 0C-0.0125655 0 0.185577 0.235294 0.420871 0.532508ZM4.22273 18.1424C4.35895 17.9071 4.28465 17.6099 4.06174 17.4613C3.85121 17.3251 3.52923 17.387 3.52923 17.5728C3.52923 17.6223 3.554 17.6718 3.6283 17.6966C3.73976 17.7585 3.75214 17.8204 3.66545 17.9567C3.57877 18.0929 3.57877 18.2167 3.69022 18.3034C3.8636 18.4396 4.09889 18.3653 4.22273 18.1424Z" fill="black"/>
<path fill-rule="evenodd" clip-rule="evenodd" d="M9.23838 11.6284C8.94117 11.7151 8.65634 12.0371 8.56965 12.3591C8.52011 12.5572 8.54488 12.9163 8.63157 13.0278C8.76779 13.2012 8.89163 13.2507 9.23838 13.2507C9.9195 13.2507 10.5015 12.9535 10.5635 12.5944C10.6254 12.2971 10.3653 11.8885 10.0062 11.7027C9.82042 11.6036 9.43652 11.5665 9.23838 11.6284ZM10.031 12.2476C10.13 12.099 10.0929 11.938 9.90711 11.8266C9.57275 11.616 9.06501 11.7894 9.06501 12.1114C9.06501 12.2724 9.32507 12.4458 9.57275 12.4458C9.73374 12.4458 9.95665 12.3467 10.031 12.2476Z" fill="black"/>
</g>
<defs>
<clipPath id="clip0_292_475">
<rect width="20.8421" height="24" fill="white"/>
</clipPath>
</defs>
</svg>
