<svg width="28" height="28" viewBox="0 0 28 28" fill="none" xmlns="http://www.w3.org/2000/svg">
<path d="M21.0003 25.6666V23.3333C21.0003 22.0956 20.5087 20.9086 19.6335 20.0335C18.7583 19.1583 17.5713 18.6666 16.3337 18.6666H9.33366C8.09598 18.6666 6.909 19.1583 6.03383 20.0335C5.15866 20.9086 4.66699 22.0956 4.66699 23.3333V25.6666" fill="white"/>
<path d="M12.8337 15.1667C15.411 15.1667 17.5003 13.0774 17.5003 10.5C17.5003 7.92271 15.411 5.83337 12.8337 5.83337C10.2563 5.83337 8.16699 7.92271 8.16699 10.5C8.16699 13.0774 10.2563 15.1667 12.8337 15.1667Z" fill="white"/>
<path d="M18.6663 24.5V22.1667C18.6663 20.929 18.1747 19.742 17.2995 18.8668C16.4243 17.9917 15.2374 17.5 13.9997 17.5H6.99967C5.762 17.5 4.57501 17.9917 3.69984 18.8668C2.82467 19.742 2.33301 20.929 2.33301 22.1667V24.5M25.6663 24.4999V22.1665C25.6656 21.1325 25.3214 20.1281 24.6879 19.3109C24.0544 18.4937 23.1675 17.91 22.1663 17.6515M18.6663 3.65153C19.6702 3.90855 20.5599 4.49235 21.1953 5.31089C21.8306 6.12944 22.1755 7.13616 22.1755 8.17236C22.1755 9.20856 21.8306 10.2153 21.1953 11.0338C20.5599 11.8524 19.6702 12.4362 18.6663 12.6932M15.1663 8.16667C15.1663 10.744 13.077 12.8333 10.4997 12.8333C7.92235 12.8333 5.83301 10.744 5.83301 8.16667C5.83301 5.58934 7.92235 3.5 10.4997 3.5C13.077 3.5 15.1663 5.58934 15.1663 8.16667Z" stroke="black" stroke-width="2" stroke-linecap="round" stroke-linejoin="round"/>
</svg>
