<svg width="25" height="25" viewBox="0 0 25 25" fill="none" xmlns="http://www.w3.org/2000/svg">
<path d="M14.3244 21.4023L21.5138 13.8071C21.6778 13.6328 21.8052 13.4278 21.8885 13.2041C21.9717 12.9804 22.0092 12.7425 21.9987 12.5043C21.9883 12.2661 21.93 12.0323 21.8274 11.8167C21.7249 11.601 21.58 11.4078 21.4013 11.2483C19.1167 9.14673 16.1161 7.97897 13.0005 7.97897C9.88479 7.97897 6.88417 9.14673 4.59965 11.2483C4.42094 11.4078 4.27605 11.601 4.17347 11.8167C4.07088 12.0323 4.01265 12.2661 4.00218 12.5043C3.9917 12.7425 4.02919 12.9804 4.11246 13.2041C4.19573 13.4278 4.32311 13.6328 4.48715 13.8071L11.6765 21.4032C11.8451 21.5847 12.0498 21.7296 12.2777 21.8287C12.5055 21.9278 12.7516 21.979 13.0005 21.979C13.2493 21.979 13.4954 21.9278 13.7233 21.8287C13.9511 21.7296 14.1558 21.5847 14.3244 21.4032V21.4023Z" fill="#5E7079" fill-opacity="0.2"/>
<path d="M13.6215 19.5581L21.6095 11.0511C21.7917 10.8559 21.9333 10.6263 22.0258 10.3757C22.1183 10.1252 22.16 9.85869 22.1483 9.59186C22.1367 9.32503 22.072 9.06319 21.958 8.82165C21.844 8.58011 21.683 8.36371 21.4845 8.18509C18.9462 5.83118 15.6122 4.52322 12.1505 4.52322C8.68871 4.52322 5.35477 5.83118 2.81648 8.18509C2.61791 8.36371 2.45694 8.58011 2.34295 8.82165C2.22897 9.06319 2.16427 9.32503 2.15264 9.59186C2.141 9.85869 2.18266 10.1252 2.27517 10.3757C2.36769 10.6263 2.50922 10.8559 2.69148 11.0511L10.6795 19.5591C10.8668 19.7624 11.0942 19.9247 11.3474 20.0357C11.6006 20.1467 11.874 20.204 12.1505 20.204C12.4269 20.204 12.7004 20.1467 12.9536 20.0357C13.2068 19.9247 13.4342 19.7624 13.6215 19.5591V19.5581Z" stroke="#3B4D56" stroke-width="1.5" stroke-linecap="round" stroke-linejoin="round"/>
<path d="M4.53949 13.0231C5.44192 11.8636 6.595 10.9233 7.91237 10.2727C9.22975 9.62206 10.6773 9.27793 12.1465 9.26608C13.6171 9.27644 15.0663 9.61986 16.3852 10.2706C17.7041 10.9213 18.8584 11.8623 19.7615 13.0231" stroke="#3B4D56" stroke-width="1.5" stroke-linecap="round" stroke-linejoin="round"/>
<path d="M7.68448 16.3681C8.17834 15.6362 8.84225 15.0348 9.61935 14.6156C10.3965 14.1964 11.2636 13.9718 12.1465 13.9611C13.0301 13.9712 13.898 14.1955 14.6758 14.6147C15.4537 15.034 16.1182 15.6356 16.6125 16.3681" stroke="#3B4D56" stroke-width="1.5" stroke-linecap="round" stroke-linejoin="round"/>
</svg>
