<svg width="28" height="28" viewBox="0 0 28 28" fill="none" xmlns="http://www.w3.org/2000/svg">
<path d="M4.55034 18.2548L6.18368 18.5045C6.76416 18.5931 7.28991 18.8973 7.65602 19.3564C8.02212 19.8155 8.20168 20.3957 8.15884 20.9813L8.04218 22.6275C8.02451 22.8618 8.07798 23.0959 8.19559 23.2993C8.31321 23.5027 8.48948 23.6658 8.70134 23.7674L9.90768 24.3507C10.1185 24.4502 10.3544 24.4843 10.5848 24.4486C10.8152 24.4128 11.0296 24.3088 11.2003 24.15L12.4125 23.03C12.8437 22.6315 13.4092 22.4102 13.9963 22.4102C14.5834 22.4102 15.1489 22.6315 15.58 23.03L16.7922 24.15C16.9645 24.31 17.1811 24.4143 17.4136 24.449C17.6462 24.4838 17.8838 24.4475 18.0953 24.3449L19.304 23.7615C19.5149 23.6599 19.6902 23.4971 19.8074 23.2945C19.9245 23.0918 19.978 22.8586 19.9608 22.6252L19.8442 20.9767C19.8025 20.3922 19.9823 19.8134 20.3478 19.3553C20.7133 18.8973 21.2378 18.5936 21.817 18.5045L23.4503 18.2548C23.6828 18.2199 23.8994 18.1156 24.0715 17.9555C24.2437 17.7954 24.3635 17.587 24.4152 17.3577L24.7127 16.0533C24.7655 15.8245 24.748 15.5849 24.6624 15.3662C24.5769 15.1474 24.4273 14.9595 24.2332 14.8272L22.8717 13.8938C22.3876 13.5622 22.0462 13.0603 21.9156 12.4882C21.785 11.9161 21.8748 11.3157 22.167 10.8068L22.9837 9.37652C23.1013 9.17293 23.1546 8.93858 23.1367 8.70416C23.1188 8.46975 23.0305 8.24621 22.8833 8.06285L22.0492 7.01285C21.9031 6.8286 21.7047 6.6928 21.48 6.62327C21.2554 6.55373 21.015 6.5537 20.7903 6.62318L19.213 7.10618C18.6514 7.27877 18.0453 7.23311 17.5159 6.97834C16.9864 6.72357 16.5726 6.27843 16.357 5.73185L15.7597 4.20002C15.6737 3.98073 15.5234 3.79261 15.3285 3.66038C15.1336 3.52815 14.9032 3.45801 14.6677 3.45918H13.3307C13.0951 3.45917 12.865 3.5305 12.6707 3.66378C12.4764 3.79705 12.327 3.98603 12.2422 4.20585L11.653 5.72252C11.44 6.27271 11.0266 6.72181 10.4958 6.9794C9.965 7.237 9.35635 7.28396 8.79234 7.11085L7.14968 6.60685C6.92419 6.53698 6.68282 6.53716 6.45744 6.60735C6.23206 6.67755 6.03328 6.81447 5.88734 7.00002L5.05901 8.05002C4.91215 8.23467 4.82472 8.45951 4.80826 8.69487C4.79181 8.93024 4.8471 9.16506 4.96684 9.36835L5.80801 10.8022C6.10625 11.3123 6.19985 11.9165 6.06993 12.4929C5.94001 13.0694 5.59624 13.575 5.10801 13.9078L3.76284 14.8295C3.56876 14.9619 3.41916 15.1497 3.3336 15.3685C3.24805 15.5873 3.23053 15.8268 3.28334 16.0557L3.58084 17.36C3.63226 17.5894 3.75178 17.7979 3.92374 17.9582C4.0957 18.1185 4.31208 18.2231 4.54451 18.2583L4.55034 18.2548Z" stroke="#3B4D56" stroke-width="1.5" stroke-linecap="round" stroke-linejoin="round"/>
<path d="M5.79326 21.1854L7.4266 21.4351C8.00708 21.5236 8.53283 21.8278 8.89894 22.2869C9.26504 22.746 9.4446 23.3263 9.40176 23.9119L9.2851 25.5581C9.26743 25.7923 9.3209 26.0265 9.43851 26.2299C9.55613 26.4332 9.7324 26.5964 9.94426 26.6979L11.1506 27.2812C11.3614 27.3808 11.5973 27.4149 11.8277 27.3791C12.0581 27.3433 12.2725 27.2394 12.4433 27.0806L13.6554 25.9606C14.0866 25.5621 14.6521 25.3408 15.2392 25.3408C15.8263 25.3408 16.3918 25.5621 16.8229 25.9606L18.0351 27.0806C18.2074 27.2406 18.424 27.3448 18.6565 27.3796C18.8891 27.4143 19.1267 27.378 19.3383 27.2754L20.5469 26.6921C20.7578 26.5904 20.9332 26.4277 21.0503 26.225C21.1674 26.0224 21.2209 25.7892 21.2038 25.5557L21.0871 23.9072C21.0454 23.3227 21.2252 22.7439 21.5907 22.2859C21.9563 21.8278 22.4807 21.5241 23.0599 21.4351L24.6933 21.1854C24.9258 21.1505 25.1423 21.0461 25.3144 20.886C25.4866 20.7259 25.6064 20.5176 25.6581 20.2882L25.9556 18.9839C26.0084 18.755 25.9909 18.5155 25.9053 18.2967C25.8198 18.0779 25.6702 17.8901 25.4761 17.7577L24.1146 16.8244C23.6305 16.4927 23.2891 15.9908 23.1585 15.4187C23.0279 14.8466 23.1177 14.2463 23.4099 13.7374L24.2266 12.3071C24.3442 12.1035 24.3975 11.8691 24.3796 11.6347C24.3617 11.4003 24.2734 11.1768 24.1263 10.9934L23.2921 9.94339C23.146 9.75914 22.9476 9.62334 22.723 9.55381C22.4983 9.48427 22.2579 9.48424 22.0333 9.55372L20.4559 10.0367C19.8943 10.2093 19.2882 10.1637 18.7588 9.90888C18.2293 9.65411 17.8155 9.20897 17.5999 8.66239L17.0026 7.13056C16.9166 6.91128 16.7663 6.72315 16.5714 6.59092C16.3765 6.45869 16.1461 6.38855 15.9106 6.38972H14.5736C14.338 6.38971 14.1079 6.46104 13.9136 6.59432C13.7193 6.72759 13.5699 6.91658 13.4851 7.13639L12.8959 8.65306C12.683 9.20326 12.2695 9.65235 11.7387 9.90995C11.2079 10.1675 10.5993 10.2145 10.0353 10.0414L8.3926 9.53739C8.16711 9.46752 7.92574 9.4677 7.70036 9.5379C7.47498 9.60809 7.2762 9.74501 7.13026 9.93056L6.30193 10.9806C6.15507 11.1652 6.06764 11.3901 6.05118 11.6254C6.03473 11.8608 6.09002 12.0956 6.20976 12.2989L7.05093 13.7327C7.34917 14.2428 7.44277 14.8471 7.31285 15.4235C7.18293 15.9999 6.83916 16.5056 6.35093 16.8384L5.00576 17.7601C4.81168 17.8924 4.66208 18.0803 4.57652 18.299C4.49097 18.5178 4.47345 18.7573 4.52626 18.9862L4.82376 20.2906C4.87518 20.52 4.9947 20.7285 5.16666 20.8888C5.33862 21.0491 5.555 21.1537 5.78743 21.1889L5.79326 21.1854Z" fill="#5E7079" fill-opacity="0.2"/>
<path d="M16.2354 11.7647C16.6777 12.2068 16.9789 12.7701 17.101 13.3835C17.223 13.9968 17.1605 14.6325 16.9212 15.2103C16.6819 15.7881 16.2767 16.2819 15.7567 16.6294C15.2368 16.9768 14.6255 17.1623 14.0001 17.1623C13.3748 17.1623 12.7634 16.9768 12.2435 16.6294C11.7235 16.2819 11.3183 15.7881 11.079 15.2103C10.8398 14.6325 10.7772 13.9968 10.8993 13.3835C11.0213 12.7701 11.3225 12.2068 11.7648 11.7647C12.3577 11.1719 13.1617 10.8389 14.0001 10.8389C14.8385 10.8389 15.6425 11.1719 16.2354 11.7647" stroke="#3B4D56" stroke-width="1.5" stroke-linecap="round" stroke-linejoin="round"/>
</svg>
